<?xml version="1.0" standalone="no"?>
<!DOCTYPE svg PUBLIC "-//W3C//DTD SVG 1.1//EN" "http://www.w3.org/Graphics/SVG/1.1/DTD/svg11.dtd" >
<!--
2013-9-30: Created.
-->
<svg>
<metadata>
Created by iconfont
</metadata>
<defs>

<font id="iconfont" horiz-adv-x="1024" >
  <font-face
    font-family="iconfont"
    font-weight="500"
    font-stretch="normal"
    units-per-em="1024"
    ascent="896"
    descent="-128"
  />
    <missing-glyph />
    
    <glyph glyph-name="x" unicode="x" horiz-adv-x="1001"
d="M281 543q-27 -1 -53 -1h-83q-18 0 -36.5 -6t-32.5 -18.5t-23 -32t-9 -45.5v-76h912v41q0 16 -0.5 30t-0.5 18q0 13 -5 29t-17 29.5t-31.5 22.5t-49.5 9h-133v-97h-438v97zM955 310v-52q0 -23 0.5 -52t0.5 -58t-10.5 -47.5t-26 -30t-33 -16t-31.5 -4.5q-14 -1 -29.5 -0.5
t-29.5 0.5h-32l-45 128h-439l-44 -128h-29h-34q-20 0 -45 1q-25 0 -41 9.5t-25.5 23t-13.5 29.5t-4 30v167h911zM163 247q-12 0 -21 -8.5t-9 -21.5t9 -21.5t21 -8.5q13 0 22 8.5t9 21.5t-9 21.5t-22 8.5zM316 123q-8 -26 -14 -48q-5 -19 -10.5 -37t-7.5 -25t-3 -15t1 -14.5
t9.5 -10.5t21.5 -4h37h67h81h80h64h36q23 0 34 12t2 38q-5 13 -9.5 30.5t-9.5 34.5q-5 19 -11 39h-368zM336 498v228q0 11 2.5 23t10 21.5t20.5 15.5t34 6h188q31 0 51.5 -14.5t20.5 -52.5v-227h-327z" />
    

    
    <glyph glyph-name="jinbitixian" unicode="&#59089;" d="M55.296 322.56q-23.552 0-40.448 17.408t-16.896 40.96l0 77.824q0 23.552 16.896 40.448t40.448 16.896l751.616 0q-15.36-4.096-29.696-10.752t-25.6-20.992q-32.768-36.864-65.536-79.36t-62.464-82.432l-568.32 0zM183.296 581.632q-23.552 0-40.448 17.408t-16.896 40.96l0 71.68q0 23.552 16.896 40.448t40.448 16.896l779.264 0q23.552 0 40.96-16.896t17.408-40.448l0-71.68q0-23.552-17.408-40.96t-40.96-17.408l-779.264 0zM700.416 132.096l0-8.192q0-6.144 0.512-19.968t0.512-40.448l-646.144 0q-23.552 0-40.448 16.896t-16.896 41.472l0 76.8q0 23.552 16.896 40.448t40.448 16.896l517.12 0q-3.072-2.048-5.632-5.632t-4.608-5.632q-10.24-14.336-12.288-33.792t4.096-37.376 19.968-30.208 34.304-12.288l48.128 0zM1005.568 246.784l15.36-25.6q6.144-10.24 6.144-16.384t-7.68-8.704-25.088-2.56l-55.296 0q-22.528 0-33.792-11.264t-11.264-29.696l0-99.328q0-17.408-15.36-34.816t-36.864-17.408l-39.936 0q-15.36 0-27.136 11.776t-11.776 41.472q0 13.312 0.512 16.896t0.512 9.216 0.512 18.944 0.512 46.08q0 25.6-8.704 36.864t-31.232 11.264l-55.296 0q-23.552 0-29.696 9.728t10.24 30.208q15.36 20.48 34.304 47.616t38.912 56.32 38.912 56.832 36.352 49.152q7.168 8.192 18.432 12.8t23.552 5.12 22.528-2.56 15.36-10.24q12.288-21.504 28.16-47.616t33.28-52.736 34.304-52.736 31.232-48.64z"  horiz-adv-x="1030" />

    
    <glyph glyph-name="zhaoxiangji" unicode="&#59038;" d="M898.048 637.952q23.552 1.024 46.592-9.216t40.96-27.136 28.672-39.424 10.752-46.08l0-390.144q0-24.576-10.752-47.104t-28.672-40.448-40.96-28.16-47.616-10.24l-697.344 0q-24.576 0-48.64 10.24t-42.496 27.648-29.696 40.448-11.264 48.64l0 381.952q0 22.528 10.752 45.568t28.672 41.472 39.936 30.208 44.544 11.776l63.488 0 13.312 83.968q3.072 20.48 18.432 32.768t34.816 12.288l456.704 0q19.456 0 34.304-10.752t16.896-34.304l14.336-83.968 54.272 0zM548.864 183.296q40.96 0 77.824 15.872t63.488 42.496 42.496 62.976 15.872 77.312-15.872 77.312-42.496 62.976-63.488 42.496-77.824 15.872-77.312-15.872-63.488-42.496-43.008-62.976-15.872-77.312 15.872-77.312 43.008-62.976 63.488-42.496 77.312-15.872z"  horiz-adv-x="1026" />

    
    <glyph glyph-name="gouwucheman" unicode="&#59074;" d="M346.112 89.088q19.456 0 36.864-7.168t30.208-19.968 20.48-30.208 7.68-36.864-7.68-36.864-20.48-30.208-30.208-20.48-36.864-7.68q-20.48 0-37.888 7.68t-30.208 20.48-20.48 30.208-7.68 36.864 7.68 36.864 20.48 30.208 30.208 19.968 37.888 7.168zM772.096 87.04q19.456 0 37.376-7.168t30.72-19.968 20.48-30.208 7.68-36.864-7.68-36.864-20.48-30.208-30.72-20.48-37.376-7.68-36.864 7.68-30.208 20.48-20.48 30.208-7.68 36.864 7.68 36.864 20.48 30.208 30.208 19.968 36.864 7.168zM944.128 668.672q28.672 0 44.544-7.68t22.528-18.944 6.144-24.064-3.584-22.016-13.312-37.888-22.016-62.976-23.552-68.096-18.944-53.248q-13.312-40.96-33.28-56.832t-49.664-15.872l-35.84 0-65.536 0-86.016 0-96.256 0-253.952 0 14.336-92.16 517.12 0q49.152 0 49.152-41.984 0-20.48-9.728-35.328t-38.4-14.848l-49.152 0-94.208 0-118.784 0-119.808 0-99.328 0-55.296 0q-20.48 0-34.304 9.216t-23.04 24.064-14.848 32.256-8.704 32.768q-1.024 6.144-5.632 29.696t-11.264 58.88-14.848 78.848-16.384 87.552q-19.456 103.424-44.032 230.4l-76.8 0q-15.36 0-25.6 7.68t-16.896 18.432-9.216 23.04-2.56 22.528q0 20.48 13.824 33.792t37.376 13.312l21.504 0 21.504 0 25.6 0 34.816 0q20.48 0 32.768-6.144t19.456-15.36 10.24-19.456 5.12-17.408q2.048-8.192 4.096-23.04t4.096-30.208q3.072-18.432 6.144-38.912l700.416 0zM867.328 701.44l-374.784 0 135.168 135.168q23.552 23.552 51.712 24.064t51.712-23.04z"  horiz-adv-x="1024" />

    
    <glyph glyph-name="zuishangbu" unicode="&#58880;" d="M776.192 448.512q22.528-26.624 17.408-45.056t-33.792-17.408q-8.192 0-20.48-0.512t-25.088-0.512-25.088-0.512-21.504-0.512q-19.456 0-24.064-12.288t-4.608-32.768q0-15.36 0.512-41.984t1.024-58.88 0.512-68.096 0.512-68.096 1.024-59.904 0.512-43.008q0-10.24-1.536-20.992t-7.168-19.968-16.384-15.36-28.16-6.144q-22.528 0-40.96 0.512t-43.008 0.512q-33.792 0-45.056 14.336t-12.288 49.152l0 34.816q0 23.552-0.512 53.76t-0.512 64.512-0.512 66.048-0.512 57.344l0 40.96q-1.024 29.696-7.168 47.616t-27.648 16.896q-15.36 0-34.816 0.512t-34.816 0.512q-27.648 0-35.328 13.824t10.752 37.376q18.432 24.576 43.52 54.272t51.712 60.928 52.224 61.44 45.056 55.808q18.432 23.552 35.328 23.552t35.328-20.48q19.456-22.528 44.544-50.688t51.712-57.856 52.224-59.392 47.104-54.272zM768 704.512l-447.488 0 0 128 447.488 0 0-128z"  horiz-adv-x="1024" />

    
    <glyph glyph-name="jinzhi" unicode="&#58913;" d="M509.952 830.464q92.16 0 174.08-35.328t142.336-96.256 95.744-142.336 35.328-173.568q0-93.184-35.328-174.592t-95.744-142.336-142.336-95.744-174.08-34.816q-93.184 0-174.592 34.816t-142.336 95.744-95.744 142.336-34.816 174.592q0 92.16 34.816 173.568t95.744 142.336 142.336 96.256 174.592 35.328zM506.88 707.584q-66.56 0-124.928-25.088t-101.888-68.608-68.608-101.888-25.088-124.928q0-51.2 14.336-95.744t40.96-83.456l444.416 443.392q-38.912 26.624-83.968 41.472t-95.232 14.848zM506.88 66.56q65.536 0 123.904 25.088t101.888 68.608 68.608 101.888 25.088 124.928q0 95.232-50.176 174.08l-443.392-443.392q38.912-24.576 81.92-37.888t92.16-13.312z"  horiz-adv-x="1024" />

    
    <glyph glyph-name="liebiao" unicode="&#58881;" d="M187.392 825.344q28.672 0 48.64-19.456t19.968-48.128l0-52.224q0-28.672-19.968-48.64t-48.64-19.968l-54.272 0q-27.648 0-47.616 19.968t-19.968 48.64l0 52.224q0 28.672 19.968 48.128t47.616 19.456l54.272 0zM889.856 825.344q27.648 0 47.616-19.456t19.968-48.128l0-52.224q0-28.672-19.968-48.64t-47.616-19.968l-437.248 0q-28.672 0-48.64 19.968t-19.968 48.64l0 52.224q0 28.672 19.968 48.128t48.64 19.456l437.248 0zM187.392 506.88q28.672 0 48.64-19.968t19.968-48.64l0-52.224q0-27.648-19.968-47.616t-48.64-19.968l-54.272 0q-27.648 0-47.616 19.968t-19.968 47.616l0 52.224q0 28.672 19.968 48.64t47.616 19.968l54.272 0zM889.856 506.88q27.648 0 47.616-19.968t19.968-48.64l0-52.224q0-27.648-19.968-47.616t-47.616-19.968l-437.248 0q-28.672 0-48.64 19.968t-19.968 47.616l0 52.224q0 28.672 19.968 48.64t48.64 19.968l437.248 0zM187.392 187.392q28.672 0 48.64-19.968t19.968-47.616l0-52.224q0-28.672-19.968-48.64t-48.64-19.968l-54.272 0q-27.648 0-47.616 19.968t-19.968 48.64l0 52.224q0 27.648 19.968 47.616t47.616 19.968l54.272 0zM889.856 187.392q27.648 0 47.616-19.968t19.968-47.616l0-52.224q0-28.672-19.968-48.64t-47.616-19.968l-437.248 0q-28.672 0-48.64 19.968t-19.968 48.64l0 52.224q0 27.648 19.968 47.616t48.64 19.968l437.248 0z"  horiz-adv-x="1024" />

    
    <glyph glyph-name="weixin" unicode="&#58956;" d="M676.4641 471.0081c11.3468 0 22.5756-0.8124 33.7085-2.0586C679.8779 610.0098 529.072 714.8168 356.9226 714.8168 164.4582 714.8168 6.8137 583.6567 6.8137 417.0826c0-96.1848 52.4486-175.1043 140.0968-236.3607l-35.0167-105.3126 122.392 61.3644c43.7921-8.6541 78.9327-17.5801 122.6349-17.5801 10.987 0 21.8771 0.5486 32.6852 1.3951-6.8376 23.3921-10.8071 47.9045-10.8071 73.3603C378.8007 346.8982 510.15 471.0081 676.4641 471.0081zM485.7476 573.0409c29.894 0 54.1265-24.2336 54.1265-54.1283s-24.2326-54.1273-54.1265-54.1273c-29.896 0-54.1285 24.2336-54.1285 54.1273S455.8536 573.0409 485.7476 573.0409zM240.7886 463.694c-29.894 0-54.1285 24.2336-54.1285 54.1273 0 29.8937 24.2346 54.1273 54.1285 54.1273 29.896 0 54.1295-24.2336 54.1295-54.1273C294.9181 487.9286 270.6846 463.694 240.7886 463.694zM993.5351 197.0158c0 139.9711-140.0618 254.0677-297.3786 254.0677-166.5829 0-297.7783-114.0966-297.7783-254.0677 0-140.2129 131.1954-254.0607 297.7783-254.0607 34.8608 0 70.0314 8.8 105.0481 17.5771l96.0358-52.5993-26.3372 87.4927C941.1815 48.1468 993.5351 118.0574 993.5351 197.0158zM604.6728 236.2542c-21.2884 0-38.5444 17.2593-38.5444 38.5459 0 21.2886 17.257 38.5439 38.5444 38.5439s38.5444-17.2563 38.5444-38.5439C643.2193 253.5125 625.9603 236.2542 604.6728 236.2542zM797.1392 234.0677c-21.2904 0-38.5454 17.2583-38.5454 38.5439 0 21.2896 17.256 38.5439 38.5454 38.5439 21.2874 0 38.5444-17.2553 38.5444-38.5439C835.6847 251.326 818.4267 234.0677 797.1392 234.0677z"  horiz-adv-x="1000" />

    
    <glyph glyph-name="diantileimu" unicode="&#58882;" d="M381.468365 89.937613 381.468365 245.323591l543.881899 0 0-155.387L381.468365 89.936591zM381.468365 478.404096l543.881899 0 0-155.387L381.468365 323.017096 381.468365 478.40409zM381.468365 711.490765l543.881899 0L925.350264 556.098613 381.468365 556.098613 381.468365 711.490729zM148.376269 245.323571l155.393366 0 0-155.387L148.376268 89.936572 148.376268 245.323591zM148.376269 478.404096l155.393366 0 0-155.387L148.376268 323.017096 148.376268 478.40409zM148.376269 711.490765l155.393366 0L303.769635 556.098613 148.376268 556.098613 148.376268 711.490729z"  horiz-adv-x="1024" />

    
    <glyph glyph-name="shanchu" unicode="&#58901;" d="M710.2592 530.9312l-17.056 0 0-428.3264-56.2816 0L636.9216 530.9312 543.1168 530.9312l0-428.3264-56.2816 0L486.8352 530.9312 393.0368 530.9312l0-428.3264-56.2816 0L336.7552 530.9312l-35.8144 0c-42.3808 0-76.7488 0.6144-76.7488 0l0-447.5264c0-41.2032 34.368-74.5984 76.7488-74.5984l409.312 0c42.3936 0 76.7424 33.3952 76.7424 74.5984L786.9952 530.9312C787.0016 534.08 752.6528 530.9312 710.2592 530.9312zM823.8656 665.4016 655.68 665.4016l0 45.7728c0 26.528-47.4112 48.0256-75.0464 48.0256l-150.08 0c-27.6224 0-75.04-21.4976-75.04-48.0256l0-45.7728L187.36 665.4016c-21.1008 0-38.2016-16.8-38.2016-37.5232 0-20.7168 17.0944-37.5168 38.2016-37.5168l636.5056 0c21.0816 0 38.176 16.8 38.176 37.5168C862.0352 648.6016 844.9408 665.4016 823.8656 665.4016zM580.64 665.4016l-150.08 0L430.56 684.16l150.08 0L580.64 665.4016z"  horiz-adv-x="1024" />

    
    <glyph glyph-name="shang" unicode="&#58960;" d="M878.302658 472.852556 557.917245 793.235709c-25.021316 25.023576-65.594773 25.023576-90.618349 0L146.915744 472.852556c-25.019055-25.023576-25.019055-65.594773 0-90.618349 25.023576-25.025837 65.597033-25.025837 90.618349 0l210.998252 211.000512 0-742.381916c0-35.390163 28.687823-64.077987 64.077987-64.077987 35.385642 0 64.075726 28.685563 64.075726 64.077987l0.00226 742.381916 211.000512-210.998252c12.509528-12.511788 28.909351-18.768812 45.306914-18.768812s32.797386 6.254764 45.309174 18.766552C903.323974 407.260044 903.323974 447.82672 878.302658 472.852556z"  horiz-adv-x="1024" />

    
    <glyph glyph-name="shangchuan" unicode="&#59026;" d="M268 431.008q-27.008 0-34.496 14.496t10.496 37.504q19.008 24 44 58.016t52 70.496 52.512 71.008 45.504 59.488q18.016 23.008 34.496 24t35.488-20.992q19.008-23.008 43.488-55.488t50.496-68 51.488-69.504 45.504-59.008q22.016-27.008 16.992-44.992t-32.992-16.992q-16.992 0-44-0.992t-44.992-0.992q-20-0.992-24.512-12.512t-4.512-31.488l0-48.992q0-27.008 0.512-55.008t0.512-55.008l0-50.016q0-10.016-1.504-20.992t-7.008-20-16-15.008-28.512-6.016q-20.992 0-38.496-0.512t-41.504-0.512q-32.992 0-44.512 15.488t-11.488 49.504l0 39.008q0 23.008-0.512 48.992t-0.512 52l0 47.008q0 30.016-6.016 47.488t-27.008 16.512q-15.008 0-36.512 0.992t-38.496 0.992zM939.008-80q6.016-24-2.496-46.016t-26.496-38.496-44-26.016-56-9.504l-678.016 0q-36 0-63.488 12.992t-44 32-22.016 41.504 1.504 40.512q6.016 14.016 12 28.992 4.992 12.992 12 29.504t15.008 33.504l38.016 92 114.016 0-43.008-126.016 644 0-43.008 126.016 108.992 0q20.992-51.008 38.016-92 7.008-18.016 14.016-35.008t12.512-30.496 8.992-23.008 3.488-10.496z"  horiz-adv-x="1024" />

    
    <glyph glyph-name="arrow-down" unicode="&#58961;" d="M146.748 114.748l320-320c24.992-24.994 65.514-24.994 90.506 0l320 320c24.992 24.994 24.992 65.516 0 90.51-24.992 24.996-65.516 24.996-90.508 0l-210.746-210.748v741.492c0 35.344-28.652 64-64 64-35.346 0-64-28.656-64-64v-741.492l-210.746 210.746c-12.496 12.496-28.876 18.746-45.254 18.746-16.376 0-32.758-6.248-45.254-18.744-24.994-24.996-24.994-65.516 0.002-90.51z"  horiz-adv-x="1024" />

    
    <glyph glyph-name="dianhua" unicode="&#58986;" d="M605.323264 728.790784c-2.212864 0.467968-4.405248 0.723968-6.598656 0.8192-19.753984 0.755712-37.037056-12.750848-41.017344-32.152576-2.194432-10.52672-0.149504-21.286912 5.787648-30.301184 5.917696-9.004032 14.98624-15.156224 25.5232-17.3056 84.826112-17.508352 157.858816-67.093504 205.625344-139.616256 47.745024-72.554496 64.391168-159.220736 46.936064-244.045824-2.193408-10.559488-0.149504-21.298176 5.788672-30.290944 5.917696-9.004032 14.98624-15.14496 25.5232-17.327104 2.212864-0.436224 4.44928-0.703488 6.62016-0.80896 8.451072-0.319488 16.623616 1.980416 23.692288 6.62016 9.003008 5.927936 15.1552 15.00672 17.32608 25.53344C965.613568 468.833024 824.231936 683.674368 605.323264 728.790784L605.323264 728.790784zM674.717696 123.326208c2.382848-1.554432 55.5776-35.707904 96.448512-77.683712 15.388672-15.879168 41.166848-42.4448 40.484864-73.2672-0.574464-21.052416-12.45184-42.16832-36.334592-64.454656-5.9392-5.83168-59.133952-55.515136-144.234496-55.515136-23.309312 0-47.255552 3.703808-71.181312 10.985472-25.1392 7.619584-50.704384 19.392512-75.907072 34.929664-99.51232 58.771456-176.313344 134.444032-249.239552 245.440512-125.353984 190.768128-128.95232 354.1504-128.376832 384.941056 0.212992 142.1056 118.564864 198.003712 132.059136 203.921408 18.562048 8.609792 34.782208 12.750848 49.724416 12.750848 7.15264 0 14.007296-0.968704 20.349952-2.906112 13.047808-3.958784 31.163392-14.21824 43.338752-40.592384 16.603136-35.781632 32.313344-87.081984 43.040768-140.786688 11.282432-55.738368-19.966976-71.38304-50.192384-86.50752l-1.19296-0.521216c0 0-53.471232-22.308864-62.87872-26.182656-9.238528-3.852288-14.04928-14.261248-10.899456-23.776256 21.563392-65.327104 54.493184-133.070848 95.192064-195.90656 40.039424-61.827072 87.656448-118.884352 137.678848-165.074944 3.575808-3.257344 8.173568-5.087232 13.028352-5.087232l1.639424 0.084992c5.257216 0.42496 10.217472 3.086336 13.5168 7.3216 8.129536 10.450944 20.603904 25.511936 33.759232 38.038528 24.946688 23.723008 47.509504 35.238912 68.967424 35.238912 5.874688 0 11.708416-0.862208 17.327104-2.576384C656.219136 134.489856 664.925184 129.807104 674.717696 123.326208L674.717696 123.326208zM505.449472 398.312192c-10.558464 2.192384-19.627008 8.323072-25.54368 17.31584-5.960704 9.004032-8.003584 19.775488-5.832704 30.332928 4.0448 19.381248 21.285888 32.898048 41.018368 32.110592 2.193408-0.064512 4.407296-0.329728 6.619136-0.787456 93.553664-19.286016 153.986048-111.135744 134.720512-204.732416-2.1504-10.492928-8.280064-19.550208-17.284096-25.521152-7.088128-4.629504-15.30368-6.918144-23.691264-6.62016-2.171904 0.115712-4.385792 0.362496-6.598656 0.830464-10.579968 2.139136-19.667968 8.312832-25.585664 17.327104-5.917696 8.972288-7.9616 19.710976-5.789696 30.268416 4.980736 24.223744 0.256 48.958464-13.411328 69.669888C550.448128 379.17568 529.650688 393.330432 505.449472 398.312192L505.449472 398.312192zM547.340288 524.581632c-21.75488 4.512768-35.80416 25.851904-31.3344 47.596544 4.001792 19.423232 21.243904 32.951296 40.997888 32.18432 2.169856-0.095232 4.406272-0.351232 6.619136-0.8192 75.71456-15.612928 140.852224-59.845632 183.510016-124.608512 42.59328-64.720896 57.470976-142.063616 41.847808-217.7792-2.171904-10.558464-8.324096-19.647488-17.328128-25.53344-7.087104-4.672512-15.240192-6.960128-23.668736-6.6304-2.194432 0.096256-4.427776 0.362496-6.641664 0.830464-21.711872 4.458496-35.781632 25.808896-31.311872 47.59552 11.260928 54.6304 0.53248 110.485504-30.247936 157.241344C649.003008 481.39136 602.003456 513.330944 547.340288 524.581632z"  horiz-adv-x="1024" />

    
    <glyph glyph-name="dingdan" unicode="&#58903;" d="M837.143552-8.881152 294.895616-8.881152l0 56.004608 433.835008 0c29.8752 0 54.26688 25.135104 54.26688 55.999488L782.997504 663.171072l54.146048 0L837.143552-8.881152zM265.519104 159.128576c-14.937088 0-27.127808 12.566528-27.127808 28.002304 0 15.424512 12.19072 28.003328 27.127808 28.003328l381.828096 0c14.925824 0 27.127808-12.578816 27.127808-28.003328 0-15.434752-12.201984-28.002304-27.127808-28.002304L265.519104 159.128576zM265.519104 383.15008l381.828096 0c14.925824 0 27.127808-12.578816 27.127808-28.002304 0-15.435776-12.201984-28.003328-27.127808-28.003328L265.519104 327.144448c-14.937088 0-27.127808 12.566528-27.127808 28.003328C238.391296 370.571264 250.582016 383.15008 265.519104 383.15008M265.519104 551.159808l381.828096 0c14.925824 0 27.127808-12.578816 27.127808-28.002304 0-15.435776-12.201984-28.002304-27.127808-28.002304L265.519104 495.1552c-14.937088 0-27.127808 12.566528-27.127808 28.002304C238.391296 538.580992 250.582016 551.159808 265.519104 551.159808M428.17536 719.169536l219.17184 0c14.925824 0 27.127808-12.578816 27.127808-28.002304 0-15.429632-12.201984-27.99616-27.127808-27.99616L428.17536 663.171072c-14.923776 0-27.114496 12.566528-27.114496 27.99616C401.060864 706.59072 413.251584 719.169536 428.17536 719.169536M837.143552 719.169536l-54.146048 0L782.997504 775.175168c0 30.859264-24.39168 56.005632-54.26688 56.005632L186.496 831.1808c-29.996032 0-54.267904-25.146368-54.267904-56.005632l0-672.052224c0-30.864384 24.271872-55.999488 54.267904-55.999488l54.132736 0 0-56.004608c0-30.870528 24.392704-56.01792 54.26688-56.01792L837.143552-64.899072c29.983744 0 54.255616 25.147392 54.255616 56.01792L891.399168 663.171072C891.399168 694.024192 867.127296 719.169536 837.143552 719.169536"  horiz-adv-x="1024" />

    
    <glyph glyph-name="tubiao" unicode="&#59050;" d="M910.7584 322.09664 123.02464 322.09664c-28.25088 0-51.23968 22.9888-51.23968 51.2448L71.78496 523.5136c0 28.25472 22.9888 51.24352 51.23968 51.24352L910.7584 574.75712c28.25088 0 51.23968-22.9888 51.23968-51.24352l0-150.17216C961.99936 345.08544 939.01056 322.09664 910.7584 322.09664zM123.02464 534.11456c-5.7472 0-10.59712-4.85376-10.59712-10.60096l0-150.17216c0-5.7472 4.8512-10.60096 10.59712-10.60096L910.7584 362.74048c5.74592 0 10.59456 4.85376 10.59456 10.60096L921.35296 523.5136c0 5.7472-4.84864 10.60096-10.59456 10.60096L123.02464 534.11456zM800.92672-192.32 232.84096-192.32c-53.82784 0-97.62304 43.79264-97.62304 97.62304L135.21792 342.4192c0 11.22432 9.09696 20.32128 20.32128 20.32128 11.2256 0 20.32128-9.09696 20.32128-20.32128l0-437.11616c0-31.42016 25.56032-56.97792 56.98048-56.97792l568.08576 0c31.41888 0 56.98048 25.55776 56.98048 56.97792L857.9072 342.4192c0 11.22432 9.09568 20.32128 20.32128 20.32128s20.32128-9.09696 20.32128-20.32128l0-437.11616C898.54848-148.52736 854.75328-192.32 800.92672-192.32zM516.88704-192.32c-11.22432 0-20.32128 9.09696-20.32128 20.32L496.56576 342.4192c0 11.22432 9.09696 20.32128 20.32128 20.32128 11.22432 0 20.32128-9.09696 20.32128-20.32128l0-514.4192C537.20832-183.22304 528.11136-192.32 516.88704-192.32zM276.63488 534.33344c-60.67072 32.84352-83.31008 108.92544-50.46272 169.59616 32.83968 60.6592 108.91776 83.3088 169.5808 50.4704 92.01792-49.81504 141.63072-188.67456 143.69408-194.56128l-38.33984-13.47584c-0.4544 1.29408-46.55744 129.98656-124.69888 172.29568-40.94464 22.15424-92.32 6.87488-114.49856-34.08256-22.17088-40.96-6.89024-92.32768 34.07872-114.50624L276.63488 534.33344zM757.1328 534.33344l-19.3536 35.73632c19.8464 10.74816 34.32448 28.57728 40.76288 50.20416 6.4384 21.62816 4.06528 44.46208-6.68416 64.29824-22.1632 40.96-73.53088 56.24832-114.49856 34.08256-78.14272-42.30656-124.23808-170.99776-124.68864-172.29312l-38.3424 13.47584C496.3904 565.72416 545.99552 704.58496 638.01344 754.4c60.68736 32.82432 136.75776 10.1888 169.5808-50.47424 15.9168-29.3824 19.43168-63.21152 9.89824-95.2448C807.95904 576.65024 786.528 550.24512 757.1328 534.33344zM878.2272 64.87936l-722.688 0c-11.22432 0-20.32128 9.09696-20.32128 20.32 0 11.22688 9.09696 20.32512 20.32128 20.32512l722.688 0c11.2256 0 20.32128-9.09696 20.32128-20.32512C898.54848 73.9776 889.4528 64.87936 878.2272 64.87936z"  horiz-adv-x="1024" />

    
    <glyph glyph-name="xiugai" unicode="&#59011;" d="M960.24 616.907c-7.045-25.162-13.3-48.539-30.685-62.625-152.125-123.258-274.058-276.3-412.026-413.431-3.627-3.608-7.963-6.79-10.664-11.005C448.23 38.396 345.66 26.733 255.894-7.69c-19.272-7.387-49.419 26.959-43.637 47.365 16.292 57.476 32.242 115.064 49.761 172.168 2.966 9.666 12.217 18.029 19.995 25.503 131.218 126.012 263.141 251.292 393.701 377.98 31.14 30.215 58.129 64.747 86.613 97.659 38.456 44.434 92.217 48.013 134.119 6.808 25.227-24.803 55.885-46.376 61.678-85.48 0.753-5.067 1.563-10.123 2.346-15.182C962.381 617.984 958.326 618.054 960.24 616.907zM721.565 574.876C594.361 447.425 467.393 320.214 343.14 195.721c21.402-21.686 45.09-45.688 65.777-66.644 127.033 124.28 255.2 249.665 382.735 374.434C765.676 529.963 742.021 554.046 721.565 574.876zM751.953 628.738c31.601-30.267 59.139-56.644 91.666-87.801 5.813 7.922 11.445 17.709 19.042 25.595 54.863 56.933 54.983 56.809-2.798 111.522-1.236 1.175-2.364 2.475-3.632 3.613-15.979 14.337-32.187 14.5-47.97 0.005C790.05 664.955 772.219 647.829 751.953 628.738zM281.031 61.064c29.28 11.791 52.376 21.089 72.131 29.043-15.174 17.848-29.055 34.176-45.392 53.396C298.67 115.461 290.938 91.613 281.031 61.064zM464.602-147.783c-84.649 0-169.299-0.129-253.948 0.055-46.354 0.102-87.305 12.635-118.404 50.028-20.506 24.654-26.319 53.31-26.365 83.719-0.255 168.444-0.916 336.896 0.196 505.335 0.591 90.427 56.421 144.32 146.989 144.846 91.49 0.531 182.985 0.018 274.474 0.201 20.044 0.037 39.148-1.542 41.708-26.855 1.875-18.522-13.274-27.868-42.991-27.891-88.919-0.075-177.848 0.133-266.776-0.085-63.603-0.158-99.734-36.669-99.753-100.365-0.06-162.45-0.075-324.903-0.035-487.354 0.01-50.26 33.871-86.142 84.609-86.331 173.573-0.657 347.151-0.527 520.724-0.116 41.066 0.096 67.666 29.396 67.848 73.861 0.454 111.143 0.216 222.289 0.386 333.438 0.015 8.486-1.965 19.188 2.284 24.958 7.151 9.717 19.358 23.275 27.953 22.286 8.985-1.033 16.895-16.867 23.842-27.193 2.397-3.558 0.548-10.007 0.548-15.137 0.01-110.302 0.154-220.605-0.041-330.907-0.16-92.874-43.949-136.383-136.985-136.483C628.777-147.857 546.689-147.792 464.602-147.783z"  horiz-adv-x="1024" />

    
    <glyph glyph-name="gerenxinxi" unicode="&#58923;" d="M296.30563 624.693898 296.30563 624.693898 296.30563 624.693898zM247.441731 587.315592c30.063951 0.001023 54.437058 29.943986 54.436035 66.88227l0 75.134211c0 36.94033-24.372083 66.88227-54.436035 66.88227-30.063951-0.001023-54.437058-29.943986-54.436035-66.88227l0-75.134211C193.005696 617.257531 217.37778 587.315592 247.441731 587.315592zM955.111205 659.112802c-2.444781 61.216223-59.060549 57.176211-59.060549 57.176211l-1.997578 0-28.101168 0-2.37724 0 0-106.273419c0 0-0.738858-46.63411-45.983171-46.729278-2.840817-0.00614-5.685728-0.011256-8.523475-0.016373-14.664593 0.026606-40.893032 0.055259-70.058483-0.004093-6.763315 0.008186-11.253771 0.017396-12.54012 0.019443-46.056852 1.493004-43.914982 45.518706-43.914982 45.518706L682.554439 716.289012l-2.736436 0-338.053158 0-2.736436 0 0-107.485013c0 0 2.14187-44.025703-43.914982-45.518706-1.28635-0.00307-5.776806-0.011256-12.54012-0.019443-29.166474 0.060375-55.394913 0.031722-70.058483 0.004093-2.837747 0.004093-5.682658 0.010233-8.523475 0.016373-45.244313 0.095167-45.983171 46.729278-45.983171 46.729278L158.008179 716.289012l-2.37724 0-28.101168 0-1.997578 0c0 0-56.615768 4.040013-59.060549-57.176211-0.357149-2.480494-0.442087-3.949962-0.442087-3.949962s0.095171-565.725622 0.095171-590.794577c0-60.752666 61.559568-61.311391 61.559568-61.311391l766.214256 0c0 0 61.559568 0.558725 61.559568 61.311391 0 25.068955 0.095171 590.794577 0.095171 590.794577S955.468354 656.632307 955.111205 659.112802zM512 127.595282c0-46.432519-88.885037-56.987922-172.32381-56.987922-83.314948 0-173.338972 10.555403-173.338972 56.987922l0 12.768815c0 34.078143 61.435743 68.601424 113.810752 87.538729 3.783322 1.38658 21.863855 11.231809 11.754188 37.755905-25.940878 26.489304-45.542107 69.414953-45.542107 111.661126 0 64.707744 42.789298 98.617042 92.824931 98.617042 50.00391 0 93.039835-33.909297 93.039835-98.617042 0-42.075281-19.710728-84.830037-45.496057-111.384833l0.137129 0c-9.894763-30.077016 5.939518-37.2156 8.446724-38.032198 54.943616-18.185174 116.687387-52.429093 116.687387-87.538729L512 127.595282zM817.251748 148.907681 622.902394 148.907681c-23.051963 0-41.738318 18.685571-41.738318 41.736567s18.687379 41.736567 41.738318 41.736567l194.349354 0c23.051963 0 41.738318-18.685571 41.738318-41.736567S840.302687 148.907681 817.251748 148.907681zM817.251748 314.164468 622.902394 314.164468c-23.051963 0-41.738318 18.686594-41.738318 41.736567 0 23.050995 18.687379 41.736567 41.738318 41.736567l194.349354 0c23.051963 0 41.738318-18.686594 41.738318-41.736567C858.990066 332.85004 840.302687 314.164468 817.251748 314.164468zM774.402072 587.315592c30.063951 0.001023 54.436035 29.943986 54.436035 66.88227l0 75.134211c0 36.94033-26.418782 66.88227-56.482733 66.88227-30.063951-0.001023-52.39036-29.943986-52.389336-66.88227l0-75.134211C719.966038 617.257531 744.338121 587.315592 774.402072 587.315592z"  horiz-adv-x="1024" />

    
    <glyph glyph-name="gerenxinxi1" unicode="&#58904;" d="M895.755931 179.054281l-153.502372 0c-14.140639 0-25.583729-11.466146-25.583729-25.582655 0-14.140045 11.44309-25.582655 25.583729-25.582655l153.502372 0c14.139615 0 25.583729 11.44261 25.583729 25.582655C921.33966 167.587112 909.895546 179.054281 895.755931 179.054281zM691.086101 588.376761l204.66983 0c14.139615 0 25.583729 11.44261 25.583729 25.582655 0 14.116509-11.444114 25.582655-25.583729 25.582655l-204.66983 0c-14.140639 0-25.583729-11.466146-25.583729-25.582655C665.502372 599.81937 676.945463 588.376761 691.086101 588.376761zM895.755931 486.046141l-204.66983 0c-14.140639 0-25.583729-11.443633-25.583729-25.582655 0-14.140045 11.44309-25.582655 25.583729-25.582655l204.66983 0c14.139615 0 25.583729 11.44261 25.583729 25.582655C921.33966 474.602507 909.895546 486.046141 895.755931 486.046141zM895.755931 332.550211l-153.502372 0c-14.140639 0-25.583729-11.466146-25.583729-25.582655 0-14.140045 11.44309-25.582655 25.583729-25.582655l153.502372 0c14.139615 0 25.583729 11.44261 25.583729 25.582655C921.33966 321.083042 909.895546 332.550211 895.755931 332.550211zM606.837859 350.248292c-51.466275-72.700789-131.989527-119.744221-222.707382-119.744221-90.717855 0-171.117281 47.043433-222.583557 119.744221-35.627901-27.931143-58.689074-70.90284-58.689074-119.744221l0-102.33062c0-84.768639 68.532669-153.781432 153.304866-153.781432l255.837287 0c84.771174 0 153.699879 69.012793 153.699879 153.781432l0 102.33062C665.699879 279.346475 642.46576 322.317149 606.837859 350.248292zM384.081356 281.66938c127.168529 0 230.253559 114.545826 230.253559 255.82655 0 141.2797-103.08503 255.82655-230.253559 255.82655-127.169552 0-230.253559-114.546849-230.253559-255.82655C153.827798 396.215206 256.911804 281.66938 384.081356 281.66938z"  horiz-adv-x="1024" />

    
    <glyph glyph-name="xiangshang" unicode="&#58962;" d="M836.337411 394.213755 538.658661 751.603445c-6.126534 7.355525-16.151865 7.355525-22.277376 0l-297.67875-357.38969c-6.125511-7.354502-3.306302-13.372565 6.265704-13.372565l174.638459 0 0-493.685889c0-9.573029 7.832386-17.404392 17.404392-17.404392l221.017766 0c9.573029 0 17.404392 7.832386 17.404392 17.404392L655.433248 380.84119l174.638459 0C839.643714 380.84119 842.462922 386.85823 836.337411 394.213755z"  horiz-adv-x="1024" />

    
    <glyph glyph-name="xiangxia" unicode="&#58963;" d="M640.253524 60.776593c0-9.612938-5.184069-17.404392-11.579733-17.404392L395.495054 43.372202c-6.395664 0-11.579733 7.791453-11.579733 17.404392L383.915321 730.479335c0 9.611915 5.184069 17.404392 11.579733 17.404392l233.177714 0c6.395664 0 11.579733-7.792477 11.579733-17.404392L640.252501 60.776593zM814.467311 237.63358c9.572006 0 12.391215-6.018064 6.263657-13.371542L522.982634-133.130721c-6.127558-7.354502-16.152888-7.354502-22.280446 0L202.953853 224.261015c-6.127558 7.354502-3.308349 13.371542 6.263657 13.371542L814.467311 237.632557z"  horiz-adv-x="1024" />

    
    <glyph glyph-name="gouwuche2" unicode="&#58883;" d="M767.06828 129.925351 383.346875 129.925351c-27.38572 0-51.461045 18.137079-59.015092 44.459584l-116.169813 404.748301L64.091714 579.133236l0 122.796744 190.325743 0c27.38572 0 51.461045-18.137079 59.015092-44.459584l24.02723-83.712587 520.570189 0c19.243273 0 37.372166-9.021467 48.976458-24.370037 11.604292-15.349593 15.341407-35.251875 10.095939-53.765531l-90.962711-321.035714C818.654168 148.162714 794.530748 129.925351 767.06828 129.925351zM429.602362 252.722094l291.046702 0 56.169277 198.23897-404.113851 0L429.602362 252.722094zM449.069739 1.509632m-62.930261 0a61.497 61.497 0 1 0 125.860523 0 61.497 61.497 0 1 0-125.860523 0ZM701.0681 1.509632m-62.930261 0a61.497 61.497 0 1 0 125.860523 0 61.497 61.497 0 1 0-125.860523 0Z"  horiz-adv-x="1024" />

    
    <glyph glyph-name="kehuzhongxin" unicode="&#58924;" d="M652.16 691.648c0 0-88.256 2.624-140.544-59.84C459.2 569.344 432.064 447.104 456.512 357.44c24.448-89.6 95.424-124.992 83.072-176.512l0-51.648c0 0-93.696-13.568-157.696-70.656-63.936-57.152-112.832-83.968-126.4-176.384l755.136 0c0 0 24.576 100.224-105.792 170.944 0 0-163.008 78.72-179.328 81.536-16.32 2.624-3.392 89.536-3.392 89.536s38.656 8.192 73.984 100.544C831.424 417.28 847.744 642.688 652.16 691.648zM345.856 69.568 12.608 69.568c0 0-14.592 105.216 65.152 163.072 79.68 57.984 188.352 79.744 199.232 96 10.88 16.384 34.496 74.304 9.088 108.736C260.736 471.808 190.848 537.024 203.52 712.64c0 0-8 77.888 66.304 135.872 74.24 57.984 155.264 35.84 207.424 16.256 45.824-17.152 101.056-108.992 66.304-133.696C502.976 702.336 465.6 647.68 440 613.056 420.352 586.368 395.52 551.488 389.312 476.352c-7.68-92.16 4.544-149.696 23.552-189.376 21.12-44.48 76.032-68.672 61.504-112.192C459.968 131.264 345.856 69.568 345.856 69.568z"  horiz-adv-x="1024" />

    
    <glyph glyph-name="set" unicode="&#58955;" d="M844.085 377.335c-7.838 29.287-19.433 57.037-34.262 82.688l65.095 98.246-92.812 92.812-98.246-65.095c-25.65 14.83-53.4 26.424-82.688 34.262l-23.438 115.485h-131.256l-23.439-115.486c-29.287-7.838-57.037-19.433-82.688-34.262l-98.246 65.095-92.812-92.812 65.095-98.246c-14.83-25.65-26.424-53.4-34.262-82.688l-115.484-23.437v-131.256l115.486-23.438c7.839-29.287 19.433-57.037 34.262-82.688l-65.095-98.246 92.812-92.812 98.246 65.095c25.65-14.83 53.4-26.424 82.688-34.262l23.439-115.486h131.256l23.438 115.486c29.287 7.838 57.037 19.433 82.688 34.262l98.246-65.095 92.813 92.812-65.095 98.246c14.83 25.65 26.424 53.4 34.262 82.688l115.486 23.438v131.256l-115.489 23.438zM667.5 288.268c0-85.822-69.572-155.393-155.393-155.393s-155.394 69.572-155.394 155.393 69.573 155.393 155.394 155.393 155.393-69.572 155.393-155.393z"  horiz-adv-x="1024" />

    
    <glyph glyph-name="dianhua1" unicode="&#58895;" d="M936.620465-68.427206l-264.790712 265.960351c26.774807 30.05041 85.208661 86.501096 129.536238 64.241117-3.553942-1.193175 222.272339-229.937926 222.272339-229.937926L936.620465-68.427206zM328.045943 542.90001 47.893358 824.288748l100.680027 71.711252c0 0 220.941018-209.052247 232.825696-223.966934C410.814018 631.915369 360.180827 573.617615 328.045943 542.90001zM303.716838 519.87562c-2.222621-9.457396 0.668219-54.313 157.033499-211.372082 122.816187-123.358539 169.755242-137.243781 186.999998-134.216841l266.322601-267.543406c-31.605835-27.161616-199.137433-132.258233-602.356914 241.85228C-79.14192 511.236869-2.903562 743.452675 24.981532 799.875732L303.716838 519.87562z"  horiz-adv-x="1024" />

    
    <glyph glyph-name="shanchu1" unicode="&#58922;" d="M873.525261 748.996896C896.999411 748.996896 916.365619 745.107405 931.628186 737.329847 946.885024 729.552289 959.013978 719.82785 968.013619 708.162225 977.014694 696.495177 983.271888 683.855399 986.792365 670.242893 990.312845 656.628963 992.075232 643.994882 992.075232 632.323561 992.075232 626.881691 991.880365 622.604818 991.48777 619.488668 991.096605 616.378214 990.900307 613.657992 990.900307 611.322303L990.900307 604.323783 913.432605 604.323783 913.432605-8.193424C913.432605-23.748541 910.303293-38.72543 904.040365-53.112701 897.783171-67.504243 888.78353-80.144022 877.045741-91.032032 865.309382-101.918621 851.02544-110.67033 834.201082-117.284317 817.376723-123.894032 798.010515-127.198176 776.098157-127.198176L252.592963-127.198176C232.248127-127.198176 213.078217-124.087722 195.0775-117.86824 177.083948-111.643059 161.629381-102.892774 148.718097-91.615955 135.805381-80.339139 125.629381-66.725206 118.197262-50.781286 110.763709-34.837363 107.048366-16.750019 107.048366 3.472202L107.048366 604.323783 34.270336 604.323783C33.492306 605.10282 33.099709 607.049702 33.099709 610.158732 32.315948 614.048222 31.924784 626.104078 31.924784 646.326298 31.924784 656.433847 34.270336 667.716362 38.965739 680.162448 43.661142 692.60711 50.702097 704.079043 60.094336 714.576823 69.486575 725.0803 81.61553 733.830587 96.481202 740.829107 111.352605 747.827627 128.954993 751.326887 149.30556 751.326887L253.767888 751.326887 253.767888 822.498448C253.767888 842.720668 260.808844 860.028973 274.896485 874.414821 288.984127 888.807789 306.195351 896 326.545917 896L693.933619 896C721.326576 896 740.300186 888.807789 750.86735 874.414821 761.428784 860.028973 766.711651 842.720668 766.711651 822.498448L766.711651 750.16474C783.144845 749.385702 800.747232 748.996896 819.531709 748.996896L873.525261 748.996896 873.525261 748.996896ZM326.545917 748.996896 693.933619 748.996896 693.933619 822.498448 326.545917 822.498448 326.545917 748.996896ZM290.154754 10.47072C315.194993 10.47072 327.716544 26.414643 327.716544 58.30391L327.716544 599.655254 254.942814 599.655254 254.942814 58.30391C254.942814 41.969757 257.484665 29.913904 262.572665 22.136346 267.659232 14.358787 276.855172 10.47072 290.154754 10.47072L290.154754 10.47072ZM512.00359 11.638563C525.301741 11.638563 534.301382 15.332941 538.998218 22.721693 543.693619 30.109018 546.039171 41.969757 546.039171 58.30391L546.039171 599.655254 473.266874 599.655254 473.266874 58.30391C473.266874 27.19368 486.178157 11.638563 512.00359 11.638563L512.00359 11.638563ZM732.670336 13.969981C746.759411 13.969981 756.144486 17.664355 760.841322 25.057379 765.536723 32.446131 767.882275 44.30687 767.882275 60.641024L767.882275 599.655254 693.933619 599.655254 693.933619 60.641024C693.933619 29.530794 706.846336 13.969981 732.670336 13.969981L732.670336 13.969981Z"  horiz-adv-x="1024" />

    
    <glyph glyph-name="fenlei" unicode="&#58884;" d="M184.637696 83.432457 109.098255 83.432457c-13.890358 0-25.178449-11.269671-25.178449-25.174356 0-13.908778 11.288091-25.183566 25.178449-25.183566l75.538417 0c13.891382 0 25.179472 11.275811 25.179472 25.183566C209.817168 72.163809 198.529077 83.432457 184.637696 83.432457zM914.82909 83.432457 360.890932 83.432457c-13.895475 0-25.183566-11.269671-25.183566-25.174356 0-13.908778 11.289114-25.183566 25.183566-25.183566L914.82909 33.074535c13.890358 0 25.178449 11.275811 25.178449 25.183566C940.008562 72.163809 928.719448 83.432457 914.82909 83.432457zM184.637696 410.764574 109.098255 410.764574c-13.890358 0-25.178449-11.274788-25.178449-25.182542 0-13.904685 11.288091-25.178449 25.178449-25.178449l75.538417 0c13.891382 0 25.179472 11.274788 25.179472 25.178449C209.817168 399.489786 198.529077 410.764574 184.637696 410.764574zM914.82909 410.764574 360.890932 410.764574c-13.895475 0-25.183566-11.274788-25.183566-25.182542 0-13.904685 11.289114-25.178449 25.183566-25.178449L914.82909 360.403582c13.890358 0 25.178449 11.274788 25.178449 25.178449C940.008562 399.489786 928.719448 410.764574 914.82909 410.764574zM184.637696 738.090551 109.098255 738.090551c-13.890358 0-25.178449-11.276834-25.178449-25.181519 0-13.902638 11.288091-25.177426 25.178449-25.177426l75.538417 0c13.891382 0 25.179472 11.273764 25.179472 25.177426C209.817168 726.81474 198.529077 738.090551 184.637696 738.090551zM360.890932 687.732629 914.82909 687.732629c13.890358 0 25.178449 11.273764 25.178449 25.177426 0 13.904685-11.288091 25.181519-25.178449 25.181519L360.890932 738.091574c-13.895475 0-25.183566-11.276834-25.183566-25.181519C335.707366 699.006394 346.99648 687.732629 360.890932 687.732629z"  horiz-adv-x="1024" />

    
    <glyph glyph-name="dianpu1" unicode="&#59024;" d="M829.220317 771.575176l-7.074116 10.656711L211.680609 782.231887l-7.141654-9.141194C48.983109 574.501752 70.507332 453.583798 97.154225 399.139815c26.740014-54.537104 80.878029-89.831958 137.977491-89.831958l5.146207 0c72.043826 2.867304 119.953999 38.642089 145.190777 64.548108 22.793122-25.90602 65.699328-60.541865 132.855844-60.541865 70.02382 0 113.703645 37.70167 135.579885 63.877843 30.546713-24.907273 90.183975-65.721841 152.687518-65.721841 40.980343 0 76.085886 16.799618 104.681154 49.907667C1017.364371 484.917434 836.949348 759.933021 829.220317 771.575176zM874.641809 392.396227c-19.22383-22.49841-41.49916-33.236985-68.14503-33.236985-60.246129 0-122.821303 54.56064-136.7792 67.51979L669.717579 590.245318c0.023536 0.458441 0.258896 0.799202 0.258896 1.245364 0 13.252839-10.714016 23.967878-23.920806 23.967878-13.227256 0-23.919782-10.715039-23.919782-23.967878l-0.258896 0 0-177.851641c-13.063527-17.811668-46.172599-52.634778-103.552447-52.634778-64.784492 0-98.525967 44.292785-107.666138 58.367339l0 172.120103c0 13.252839-10.715039 23.967878-23.898293 23.967878-13.228279 0-23.943318-10.715039-23.943318-23.967878l0-171.250292c-11.725042-15.249309-52.070936-60.389392-124.465756-63.37233l-3.219321 0 0 0.047072c-31.933293 0-73.688279 19.585057-95.000678 63.232137-21.358447 43.540655-36.843116 141.948943 94.953605 314.397526l561.097208 0C845.996398 655.826965 940.480306 468.774779 874.641809 392.396227zM831.288418 282.16773c-13.277398 0-24.086581-10.761088-24.13263-24.037463l0-0.045025c0-0.048095 0-0.048095 0-0.095167 0 0 0-0.023536 0-0.059352l0-173.505659c0-26.693965-21.641903-48.312332-48.263214-48.312332L552.089555 36.112732c-0.022513 0-0.022513 0-0.046049 0L264.081049 36.112732c-26.623357 0-48.26526 21.618367-48.26526 48.312332l0 173.634596c-0.023536 13.323447-10.80816 24.108071-24.109094 24.108071-13.299911 0-24.084535-10.784624-24.131607-24.108071l0-178.452321c0-50.730405 41.026392-91.804892 91.664699-91.804892l504.492002 0c50.637284 0 91.662653 41.074487 91.662653 91.804892L855.394443 258.130268C855.325881 271.407666 844.562746 282.16773 831.288418 282.16773z"  horiz-adv-x="1024" />

    
    <glyph glyph-name="msnui-checkbox-checked" unicode="&#59084;" d="M954.954 176.966c0-131.687-106.759-238.443-238.452-238.443h-417.292c-131.693 0-238.452 106.754-238.452 238.443l0 417.274c0 131.687 106.759 238.443 238.452 238.443h417.292c131.693 0 238.452-106.754 238.452-238.443l-0-417.274zM745.398 525.001c-13.663 13.612-35.813 13.612-49.477 0l-225.257-224.432-119.198 118.762c-13.662 13.612-35.814 13.612-49.475 0-13.662-13.614-13.662-35.685 0-49.297l143.93-143.403c0.002 0 0.002-0.002 0.005-0.005 2.134-2.125 4.477-3.92 6.962-5.386 13.416-7.895 30.989-6.101 42.514 5.386 0.005 0.005 0.007 0.008 0.010 0.011l249.986 249.070c13.663 13.612 13.663 35.683 0 49.294z"  horiz-adv-x="1024" />

    
    <glyph glyph-name="fanhui1" unicode="&#58885;" d="M729.972918-7.68375l-393.880789 391.691937 393.880789 391.68068c10.270924 10.214642 11.294231 25.719778 2.334161 34.666544-9.002025 8.925277-24.607444 7.902994-34.877345-2.322905L291.499515 404.382213c-5.846148-5.824659-8.601912-13.382798-8.270361-20.463054-0.267083-7.03523 2.468215-14.525831 8.314363-20.306488l405.885194-403.662573c10.269901-10.180873 25.919323-11.248182 34.877345-2.312672C741.267149-33.423995 740.243843-17.908626 729.972918-7.68375z"  horiz-adv-x="1024" />

    
    <glyph glyph-name="shanchu2" unicode="&#58886;" d="M912.526651 28.258856 555.540144 385.287319l356.986507 357.000833c11.171434 11.18576 11.171434 29.257348 0 40.443108-11.20111 11.18576-29.272697 11.18576-40.444131 0L515.096013 425.732473 158.096203 782.732284c-11.187807 11.159154-29.258371 11.159154-40.444131 0-11.186783-11.186783-11.186783-29.286 0-40.47176L474.623229 385.287319 117.623419 28.258856c-11.159154-11.172457-11.159154-29.216415 0-40.443108 11.18576-11.17348 29.284977-11.17348 40.47176 0l357.000833 357.027439 356.985484-357.027439c11.171434-11.17348 29.243021-11.17348 40.444131 0C923.698085-0.957559 923.725714 17.086399 912.526651 28.258856z"  horiz-adv-x="1024" />

    
    <glyph glyph-name="lianxi" unicode="&#58914;" d="M313.235562 202.752006l-55.774281-105.540731 250.91161 105.540731L313.235562 202.752006 313.235562 202.752006zM756.763075 671.277866 264.456602 671.277866c-54.064336 0-74.045413-29.063943-74.045413-68.425416l0-352.552521c0-39.373753 33.624818-71.847351 74.045413-71.847351l492.306472 0c40.408315 0 74.034157 32.473599 74.034157 81.057107L830.797231 612.062206c0 30.151717-38.741349 59.21566-79.150688 59.21566L756.763075 671.277866zM328.493058 384.254803c-26.945699 0-48.79124 21.297049-48.79124 47.559179 0 26.250874 21.833261 47.536666 48.79124 47.536666 26.953885 0 48.792263-21.285792 48.792263-47.536666C377.285321 405.550829 355.434663 384.254803 328.493058 384.254803L328.493058 384.254803zM514.418584 384.254803c-26.941606 0-48.790216 21.297049-48.790216 47.559179 0 26.250874 21.838378 47.536666 48.790216 47.536666 26.970258 0 48.807612-21.285792 48.807612-47.536666C563.226197 405.550829 541.389866 384.254803 514.418584 384.254803L514.418584 384.254803zM702.384583 384.254803c-26.941606 0-48.79124 21.297049-48.79124 47.559179 0 26.250874 21.849634 47.536666 48.79124 47.536666 26.969235 0 48.79124-21.285792 48.79124-47.536666C751.174799 405.550829 729.353818 384.254803 702.384583 384.254803L702.384583 384.254803zM702.384583 384.254803"  horiz-adv-x="1024" />

    
    <glyph glyph-name="duihao1" unicode="&#59028;" d="M955.642634 539.95814l-84.911902 84.910878c-4.870938 4.872984-12.728906 4.91494-17.549701 0.094144L401.752572 173.532657l-231.093239 231.092215c-4.820796 4.820796-12.678764 4.777817-17.550725-0.094144l-84.910878-84.910878c-4.872984-4.872984-4.91494-12.728906-0.094144-17.549701l324.81069-324.84139c1.264806-1.077541 2.337231-1.940189 4.360308-2.833535 5.021364-2.215458 9.637498-0.812505 13.190417 2.739391l545.272801 545.272801C960.557574 527.227188 960.515618 535.085156 955.642634 539.95814z"  horiz-adv-x="1024" />

    
    <glyph glyph-name="dingwei" unicode="&#58957;" d="M512.79-224.767c0 0-356.822 455.293-356.822 650.463 0 195.136 159.771 353.334 356.822 353.334 197.034 0 356.795-158.179 356.795-353.334-0.002-195.177-356.795-650.463-356.795-650.463v0zM509.088 576.059c-83.867 0-151.883-67.339-151.883-150.439 0-83.054 68.005-150.395 151.883-150.395 83.913 0 151.899 67.339 151.899 150.395 0 83.077-67.981 150.439-151.899 150.439v0z"  horiz-adv-x="1024" />

    
    <glyph glyph-name="shanchushiyong" unicode="&#58991;" d="M993.882724 570.266223l-963.763872 0c-16.645437 0-30.116489 13.5703-30.116489 30.217313s13.471052 30.217313 30.116489 30.217313l963.760721 0c16.647012 0 30.118064-13.5703 30.118064-30.217313C1024.000788 583.836524 1010.529736 570.266223 993.882724 570.266223zM783.059426-212l-572.23219 0c-49.822884 0-89.958772 40.531308-89.958772 90.352617L120.868464 480.704446c0 16.645437 13.568725 30.116489 30.217313 30.116489s30.217313-13.471052 30.217313-30.116489l0-602.351829c0-16.615505 12.907067-29.919567 29.524147-29.919567L783.059426-151.56695c16.61708 0 29.426473 13.304062 29.426473 29.919567L812.485899 480.704446c0 16.645437 13.5703 30.116489 30.215737 30.116489 16.645437 0 30.215737-13.471052 30.215737-30.116489l0-602.351829C872.920525-171.468692 832.883885-212 783.059426-212zM752.892525 601.175127c-16.645437 0-29.376061 13.469476-29.376061 30.116489l0 90.354192c0 16.618656-14.190999 29.921142-30.81123 29.921142L301.179853 751.56695c-16.618656 0-30.907328-13.302486-30.907328-29.921142l0-90.352617c0-16.647012-12.730624-30.116489-29.376061-30.116489-16.647012 0-29.377637 13.469476-29.377637 30.116489l0 90.352617c0 49.822884 39.839718 90.354192 89.662602 90.354192l391.525381 0c49.826035 0 89.566504-40.532884 89.566504-90.354192l0-90.352617C782.268586 614.646179 769.541113 601.175127 752.892525 601.175127zM391.135475-61.411255c-16.647012 0-30.215737 13.467901-30.215737 30.113338L360.919737 360.233765c0 16.647012 13.568725 30.116489 30.215737 30.116489S421.352788 376.882353 421.352788 360.233765l0-391.530107C421.352788-47.941779 407.784063-61.411255 391.135475-61.411255zM602.650363-61.411255c-16.645437 0-30.217313 13.467901-30.217313 30.113338L572.43305 360.233765c0 16.647012 13.571876 30.116489 30.217313 30.116489 16.645437 0 30.215737-13.469476 30.215737-30.116489l0-391.530107C632.867676-47.941779 619.2958-61.411255 602.650363-61.411255z"  horiz-adv-x="1024" />

    
    <glyph glyph-name="jiahao" unicode="&#58900;" d="M923.072 452.48l-342.592 0 0 342.592c0 37.824-30.656 68.48-68.48 68.48-37.888 0-68.48-30.656-68.48-68.48l0-342.592-342.592 0c-37.824 0-68.48-30.656-68.48-68.48 0-37.76 30.656-68.608 68.48-68.608l342.592 0 0-342.528c0-37.952 30.592-68.352 68.48-68.352 37.824 0 68.48 30.464 68.48 68.352l0 342.528 342.592 0c37.888 0 68.48 30.784 68.48 68.608C991.616 421.824 960.96 452.48 923.072 452.48z"  horiz-adv-x="1024" />

    
    <glyph glyph-name="suoyou" unicode="&#58945;" d="M390.140093 745.485097 132.242372 745.485097c-38.551014 0-69.799716-31.248701-69.799716-69.787436l0-257.921257c0-38.539758 31.248701-69.789483 69.799716-69.789483l257.897721 0c38.549991 0 69.798692 31.249725 69.798692 69.789483L459.938786 675.697661C459.938786 714.236396 428.691107 745.485097 390.140093 745.485097zM410.252153 450.017712c0-28.906353-23.435759-52.343135-52.355415-52.343135L164.484703 397.674577c-28.919656 0-52.355415 23.436782-52.355415 52.343135l0 193.435571c0 28.9084 23.435759 52.343135 52.355415 52.343135l193.412035 0c28.919656 0 52.355415-23.435759 52.355415-52.343135L410.252153 450.017712zM887.022791 745.485097 629.10051 745.485097c-38.537711 0-69.78539-31.248701-69.78539-69.787436l0-257.921257c0-38.539758 31.247678-69.789483 69.78539-69.789483l257.922281 0c38.539758 0 69.788459 31.249725 69.788459 69.789483L956.81125 675.697661C956.812273 714.236396 925.562549 745.485097 887.022791 745.485097zM907.123594 450.017712c0-28.906353-23.434735-52.343135-52.355415-52.343135L661.357168 397.674577c-28.92068 0-52.355415 23.436782-52.355415 52.343135l0 193.435571c0 28.9084 23.434735 52.343135 52.355415 52.343135l193.411011 0c28.92068 0 52.355415-23.435759 52.355415-52.343135L907.123594 450.017712zM887.022791 248.613656 629.10051 248.613656c-38.537711 0-69.78539-31.248701-69.78539-69.787436l0-257.922281c0-38.539758 31.247678-69.788459 69.78539-69.788459l257.922281 0c38.539758 0 69.788459 31.248701 69.788459 69.788459L956.81125 178.82622C956.812273 217.364955 925.562549 248.613656 887.022791 248.613656zM907.123594-46.853729c0-28.906353-23.434735-52.343135-52.355415-52.343135L661.357168-99.196865c-28.92068 0-52.355415 23.436782-52.355415 52.343135L609.001753 146.581842c0 28.907377 23.434735 52.344159 52.355415 52.344159l193.411011 0c28.92068 0 52.355415-23.436782 52.355415-52.344159L907.123594-46.853729zM391.086651 248.613656 131.295813 248.613656c-38.029128 0-68.853158-30.825053-68.853158-68.841901l0-259.814374c0-38.016849 30.825053-68.840878 68.853158-68.840878l259.790838 0c38.030152 0 68.853158 30.824029 68.853158 68.840878L459.939809 179.771755C459.938786 217.788603 429.11578 248.613656 391.086651 248.613656zM410.252153-46.853729c0-28.906353-23.435759-52.343135-52.355415-52.343135L164.484703-99.196865c-28.919656 0-52.355415 23.436782-52.355415 52.343135L112.129288 146.581842c0 28.907377 23.435759 52.344159 52.355415 52.344159l193.412035 0c28.919656 0 52.355415-23.436782 52.355415-52.344159L410.252153-46.853729z"  horiz-adv-x="1024" />

    
    <glyph glyph-name="icon" unicode="&#58982;" d="M511.979-107.056c-300.633 0-426.734 107.535-426.734 328.527 0 183.079 142.992 374.138 316.335 434.413l220.799 0c173.35-60.275 316.335-251.333 316.335-434.413-0.001-220.992-126.102-328.527-426.737-328.527zM630.242 256.086l0 0.073c19.951 0.105 36.089 16.314 36.089 36.281 0 19.987-16.137 36.177-36.089 36.303l0 0.086-73.195 0c0.143 0.816-0.097 1.542-0.025 2.359l85.783 87.691c13.993 15.764 6.873 28.799-7.269 43.092-14.231 14.365-37.489 17.378-48.989 4.859l-73.762-78.629-79.675 79.676c-10.082 10.073-29.696 6.791-43.81-7.324-14.126-14.134-17.397-33.764-7.324-43.837l81.486-81.467c-1.525-1.95-2.512-4.115-3.104-6.42l-66.225 0 0-0.068c-0.062 0-0.126 0-0.186 0-20.057 0-36.319-16.245-36.319-36.319 0-20.037 16.262-36.316 36.319-36.316 0.061 0 0.124 0.036 0.186 0.036l0-0.073 72.591 0 0-36.175-72.591 0 0-0.106c-0.062 0-0.126 0-0.186 0-20.057 0-36.319-16.245-36.319-36.317 0-20.039 16.262-36.319 36.319-36.319 0.061 0 0.124 0.036 0.186 0.036l0-0.036 72.591 0 0-36.566 0.753 0c-0.569-2.836-0.895-5.798-0.895-8.83 0-25.075 20.322-45.398 45.396-45.398 25.076 0 45.398 20.323 45.398 45.398 0 3.031-0.33 5.994-0.896 8.83l0.425 0 0 36.566 73.338 0.036c19.951 0.125 36.089 16.315 36.089 36.284 0 19.984-16.137 36.175-36.089 36.299l0 0.125-73.338 0 0 36.174 73.337 0zM684.487 800.89l-7.632-9.54c-0.169-0.177-0.286-0.39-0.454-0.567l-64.548-80.686-217.906 0-64.426 80.545c-0.479 0.462-0.789 1.028-1.232 1.525l-6.978 8.724 1.231 2.466c-0.593 2.235-1.383 4.416-1.383 6.828 0 11.562 7.271 21.331 17.45 25.305l0.861 1.721c0 0 89.262 17.857 163.43 18.159 77.62 0.319 163.431-18.159 163.431-18.159l0.88-1.738c10.115-4.009 17.324-13.762 17.324-25.287 0-2.377-0.781-4.487-1.347-6.667l1.3-2.627z"  horiz-adv-x="1024" />

    
    <glyph glyph-name="gouwuche1" unicode="&#59002;" d="M335.018479-195.674708c-39.605204 0-71.84935 32.244146-71.84935 71.84935s32.244146 71.84935 71.84935 71.84935c39.650364 0 71.894509-32.244146 71.894509-71.84935S374.668842-195.674708 335.018479-195.674708zM829.49645-195.674708c-39.627784 0-71.871929 32.244146-71.871929 71.84935s32.244146 71.84935 71.871929 71.84935c39.650364 0 71.917089-32.244146 71.917089-71.84935S869.124234-195.674708 829.49645-195.674708zM325.896185-19.054465c-51.459669 0-96.755017 40.711621-103.054818 92.668049L162.936803 495.203528 128.795943 692.57473C126.854068 708.538743 111.951312 722.651202 96.913076 722.651202L51.911268 722.651202c-20.141301 0-36.534333 16.393032-36.534333 36.534333 0 20.141301 16.415612 36.511753 36.534333 36.511753l45.001808 0c52.046748 0 97.816273-40.643881 104.183815-92.532569l34.07312-196.580904 60.152944-423.622139c1.828975-15.354355 16.122073-28.970055 30.57323-28.970055l573.710959 0c20.141301 0 36.511753-16.415612 36.511753-36.556913 0-20.118721-16.393032-36.466593-36.511753-36.466593L325.896185-19.031885zM370.039956 122.205601c-19.012304 0-35.021477 14.857596-36.376273 33.869901-0.722558 9.709372 2.370893 19.147784 8.783594 26.554002 6.299802 7.361058 15.196295 11.809305 24.928247 12.531863l479.371996 35.315017c16.483352 0.13548 31.047409 12.712503 32.989283 28.586196l55.614377 318.128688c1.399956 12.170584-2.032194 24.634708-8.625535 32.131246-4.290187 4.877266-9.709372 7.361058-16.031753 7.361058L299.161544 616.683572c-20.163881 0-36.556913 16.393032-36.556913 36.534333s16.415612 36.534333 36.556913 36.534333l611.532348 0c27.32172 0 52.453186-11.357707 70.742933-31.995766 20.863859-23.528291 30.415171-56.698214 26.215303-91.042293l-55.659537-318.173848c-3.048291-24.612128-15.241455-47.372701-34.366659-64.443131-19.238104-17.07043-43.443793-26.508842-68.1914-26.599162l-476.707563-35.202117L370.039956 122.205601z"  horiz-adv-x="1024" />

    
    <glyph glyph-name="shanchu3" unicode="&#58932;" d="M512 832C264.64 832 64 631.36 64 384s200.64-448 448-448 448 200.64 448 448S759.36 832 512 832L512 832zM736 234.688 661.312 160 512 309.312 362.688 160 288 234.688 437.312 384 288 533.312 362.688 608 512 458.688 661.312 608 736 533.312 586.688 384 736 234.688 736 234.688zM736 234.688"  horiz-adv-x="1024" />

    
    <glyph glyph-name="shoucang" unicode="&#58973;" d="M955.6104 408.802008c-3.797489 11.391445-13.513782 19.655665-25.351388 21.443381l-269.601274 41.657772L540.263717 729.776324c-5.249561 11.168364-16.529465 18.427698-28.925796 18.427698l0 0c-12.396331 0-23.564695-7.147794-28.925796-18.316158L360.9027 472.683944l-269.935895-40.764426c-11.838629-1.786693-21.666462-9.939373-25.463951-21.330818-3.797489-11.279904-1.004887-23.90034 7.370875-32.387641l195.890482-201.474664L221.969441-107.282007c-2.009773-12.06171 3.127224-24.234961 13.066597-31.271214s23.118534-7.818059 33.839713-1.898233l241.12164 132.678812 240.563938-133.572158c4.913916-2.568499 10.163477-3.90903 15.523555-3.90903l0.670266 0c17.645892 0 31.828916 14.295588 31.828916 31.94148 0 3.90903-0.670266 7.706519-2.009773 11.279904l-44.672432 277.865495 196.337667 200.692858C956.503746 385.013209 959.407889 397.522104 955.6104 408.802008z"  horiz-adv-x="1024" />

    
    <glyph glyph-name="daifahuo" unicode="&#58947;" d="M959.121875 19.53633c0-61.794391-50.101071-111.893416-111.893416-111.893416L175.870008-92.357086c-61.794391 0-111.893416 50.099025-111.893416 111.893416L63.976592 355.214533c0 20.487613 5.898337 39.433104 15.514345 55.946196 0 0 23.057135 72.78777 122.330116 260.145925 29.995151 47.560202 57.96825 47.560202 88.89154 47.560202 109.543905 0 332.48344 0 441.890222 0 30.706349 0 58.679447 0 91.214445-52.354392 98.479919-185.883571 119.7872-255.351736 119.7872-255.351736 9.614985-16.514115 15.518438-35.458583 15.518438-55.946196L959.122899 19.53633zM332.100212 662.921683c-25.104771 0-47.833425 0-72.201415-38.914288-22.127973-42.041512-57.476039-109.22975-82.553181-156.899446l194.338127 0 39.09132 195.813734C380.914988 662.921683 353.735975 662.921683 332.100212 662.921683zM545.722544 662.921683c-26.28055 0-52.886511 0-79.001285 0l-39.09132-195.813734 161.582095 0L545.722544 662.921683zM595.468528 411.161752 427.629939 411.161752l0-93.248777c0-25.746384 18.795065-46.615691 41.959647-46.615691l83.919295 0c23.165606 0 41.959647 20.869307 41.959647 46.615691L595.468528 411.161752zM765.273912 620.087109c-26.441209 42.834574-49.169863 42.834574-74.110905 42.834574-22.564925 0-51.822272 0-83.238796 0l43.491537-195.813734 194.33608 0C821.44012 513.31534 787.484773 577.867542 765.273912 620.087109zM903.174656 355.214533c0 30.895661-25.050536 55.946196-55.946196 55.946196L651.415748 411.160729l0-125.879965c0-38.627762-31.30703-69.931722-69.933769-69.931722l-139.865491 0c-38.628786 0-69.932746 31.304983-69.932746 69.931722L371.683742 411.161752 175.870008 411.161752c-30.896684 0-55.946196-25.050536-55.946196-55.946196l0-335.679225c0-30.896684 25.049512-55.946196 55.946196-55.946196L847.229482-36.409866c30.894637 0 55.946196 25.049512 55.946196 55.946196L903.175679 355.214533zM805.268812 19.53633 553.508881 19.53633c-7.732102 0-13.986549 6.254447-13.986549 13.986549l0 27.973098c0 7.716752 6.254447 13.987572 13.986549 13.987572l251.758907 0c7.730055 0 13.987572-6.27082 13.987572-13.987572l0-27.973098C819.256384 25.790778 812.997843 19.53633 805.268812 19.53633zM805.268812 103.456648 665.402297 103.456648c-7.732102 0-13.986549 6.254447-13.986549 13.986549L651.415748 145.415272c0 7.715729 6.254447 13.986549 13.986549 13.986549l139.866515 0c7.730055 0 13.987572-6.27082 13.987572-13.986549l0-27.973098C819.256384 109.711096 812.997843 103.456648 805.268812 103.456648z"  horiz-adv-x="1024" />

    
    <glyph glyph-name="fenlei1" unicode="&#58915;" d="M146.889977 731.298867c-44.265156 0-80.146365-35.168987-80.146365-78.545914 0-43.395346 35.880185-78.562287 80.146365-78.562287 44.264133 0 80.146365 35.167964 80.146365 78.562287C227.036341 696.12988 191.15411 731.298867 146.889977 731.298867zM327.721485 679.555389l0-58.613956 629.532857 0 0 58.613956L327.721485 679.555389zM146.889977 462.562287c-44.265156 0-80.146365-35.166941-80.146365-78.562287 0-43.376926 35.880185-78.545914 80.146365-78.545914 44.264133 0 80.146365 35.168987 80.146365 78.545914C227.036341 427.395346 191.15411 462.562287 146.889977 462.562287zM327.721485 357.267149l629.532857 0 0 58.595536L327.721485 415.862685 327.721485 357.267149zM146.889977 193.809333c-44.265156 0-80.146365-35.167964-80.146365-78.545914 0-43.395346 35.880185-78.561263 80.146365-78.561263 44.264133 0 80.146365 35.165918 80.146365 78.561263C227.036341 158.640346 191.15411 193.809333 146.889977 193.809333zM327.721485 75.764823l629.532857 0L957.254342 134.36036 327.721485 134.36036 327.721485 75.764823z"  horiz-adv-x="1024" />

    
    <glyph glyph-name="dingdan1" unicode="&#58905;" d="M818.603 802.766l-55.879 0c-15.456 0-33.289-9.51-33.289-24.967 0-15.456 17.833-30.912 33.289-30.912l55.879 0c33.289 0 55.879-22.59 55.879-55.879l0-643.191c0-33.289-22.59-55.879-55.879-55.879L217.021-8.062c-33.289 0-70.143 22.59-70.143 55.879L146.878 691.007c0 33.289 22.59 55.879 55.879 55.879L272.9 746.886c15.456 0 21.401 15.457 21.401 30.912 0 15.457-5.945 24.967-21.401 24.967l-70.142 0C124.289 802.766 91 754.021 91 689.82l0-636.058c0-68.955 41.611-117.699 117.699-117.699l603.957 0c76.093 0 117.704 40.423 117.704 117.699L930.36 689.82C930.36 754.021 891.126 802.766 818.603 802.766L818.603 802.766zM272.9 550.718c0-15.456 13.081-28.531 28.532-28.531l419.68 0c15.456 0 28.536 13.075 28.536 28.531 0 15.457-13.08 28.536-28.536 28.536l-419.68 0C285.981 579.254 272.9 566.175 272.9 550.718L272.9 550.718zM719.924 424.696 301.432 424.696c-15.451 0-28.532-13.079-28.532-28.536 0-15.452 13.081-28.531 28.532-28.531l419.68 0c15.456 0 28.536 13.079 28.536 28.531C748.46 412.805 735.38 424.696 719.924 424.696L719.924 424.696zM719.924 257.064 301.432 257.064c-15.451 0-28.532-13.08-28.532-28.537 0-15.455 13.081-28.53 28.532-28.53l419.68 0c15.456 0 28.536 13.075 28.536 28.53C748.46 245.173 735.38 257.064 719.924 257.064L719.924 257.064zM414.378 732.619l194.98 0c22.591 0 41.611 22.59 41.611 48.746 0 26.154-19.021 48.745-42.799 48.745L414.378 830.11c-23.778 0-42.799-22.59-42.799-48.745C371.579 755.209 390.6 732.619 414.378 732.619L414.378 732.619zM414.378 732.619"  horiz-adv-x="1024" />

    
    <glyph glyph-name="shijian" unicode="&#58987;" d="M507.176927-39.635246C280.195701-39.635246 96.195397 144.368128 96.195397 371.341167 96.195397 598.318299 280.195701 782.322697 507.176927 782.322697c226.972016 0 410.976413-184.004397 410.976413-410.98153C918.153339 144.368128 734.149966-39.635246 507.176927-39.635246L507.176927-39.635246zM507.176927 735.751844c-201.257144 0-364.406584-163.15251-364.406584-364.40556 0-201.257144 163.14944-364.410677 364.406584-364.410677 201.253051 0 364.40556 163.153533 364.40556 364.406584C871.582487 572.599334 708.429977 735.751844 507.176927 735.751844L507.176927 735.751844zM313.402556 242.714618c-5.688832 12.148251-0.47586 26.575513 11.67239 32.259229l179.60704 60.065839L504.681986 588.468505c0 13.408001 10.845519 24.252497 24.252497 24.252497 13.403908 0 24.252497-10.845519 24.252497-24.252497l0-266.7877c0-0.995725-0.44823-1.803152-0.567962-2.770223 0.519864-9.593956-4.620449-18.971984-13.855207-23.285426l-193.13068-64.563485C333.509441 225.377956 319.062734 230.585811 313.402556 242.714618L313.402556 242.714618zM717.692366 268.2985"  horiz-adv-x="1024" />

    
    <glyph glyph-name="toprightcorner01" unicode="&#58899;" d="M921.6 896 0 896l1024-1024L1024 793.6C1024 850.1504 978.1504 896 921.6 896zM891.008 726.4768l-235.7504-307.9424c-8.1152-10.5984-22.528-11.9552-32.1792-3.072-0.4864 0.4608-0.9728 0.9216-1.408 1.408l-1.536 1.664-97.7664 106.8544c-13.7984 15.0784-13.824 39.5776-0.0768 54.7072 13.7728 15.1296 36.096 15.1552 49.92 0.0768 1.4592-1.5872 2.8672-3.4816 4.0192-5.248l63.0784-99.0464 216.576 282.88c8.1408 10.624 22.6048 12.0064 32.3072 3.0976C897.8688 752.9472 899.1488 737.1008 891.008 726.4768z"  horiz-adv-x="1024" />

    
    <glyph glyph-name="arrows-right" unicode="&#59097;" d="M369.052 287.951l0.004 0.009h-0.009l-165.704 345.945-10.168-4.708 162.89-341.247-162.89-341.247 10.168-4.708 165.713 345.944z"  horiz-adv-x="1024" />

    
    <glyph glyph-name="yuyue" unicode="&#58928;" d="M874.182656 746.080256C777.459712 842.743808 648.906752 896 512.098304 896 375.339008 896 246.777856 842.743808 150.09792 746.070016 53.379072 649.363456 0.116736 520.777728 0.116736 383.997952c-0.024576-136.798208 53.200896-265.35936 149.901312-362.119168C246.687744-74.74176 375.261184-128 512.008192-128c136.808448 0 265.426944 53.295104 362.174464 149.981184C1073.768448 221.58336 1073.79712 546.394112 874.182656 746.080256zM752.982016 200.275968c-11.778048-20.39808-33.880064-27.387904-54.272-15.618048l-176.003072 106.668032c-5.931008 3.418112-15.65696 8.237056-19.2 13.568C490.708992 312.233984 471.04 325.502976 471.04 341.32992L471.04 639.995904c0 23.554048 19.113984 42.67008 42.661888 42.67008 23.554048 0 42.672128-19.113984 42.672128-42.67008l0-279.12192 176.979968-102.356992C753.793024 246.740992 764.758016 220.674048 752.982016 200.275968z"  horiz-adv-x="1024" />

    
    <glyph glyph-name="alipay" unicode="&#58930;" d="M587.124643 226.561581c0 0-75.10658-60.114165-102.436126-75.865232-24.02399-13.836373-46.566802-23.030517-66.634962-29.424872-20.104286-6.376292-37.715858-10.386312-52.834715-12.048121s-27.63662-2.709473-37.571353-3.197178c-0.939284-0.451579-2.131452-0.704463-3.540377-0.704463l-11.343658 0c-25.992874 0-50.450379 3.070736-73.372517 9.23027-22.940201 6.141471-42.899982 15.245299-59.91547 27.29342s-30.490598 27.185041-40.407268 45.374634c-9.91667 18.207656-14.884036 39.359605-14.884036 63.455848 0.469642 20.790686 6.141471 39.702805 16.997425 56.718292 10.89208 17.015488 24.945211 31.429882 42.195519 43.261245s36.397248 20.790686 57.440818 26.95022c21.025507 6.141471 42.177456 8.724502 63.455848 7.785218 20.790686-0.939284 40.87691-3.413935 60.25867-7.423955 19.38176-4.028083 37.950679-8.869007 55.652567-14.540836 17.719951-5.671829 34.500617-11.8133 50.342-18.442477s30.833798-13.005468 45.013371-19.146939c5.671829-2.366273 11.578479-4.732545 17.719951-7.098818 6.141471-2.366273 12.517763-4.732545 19.146939-7.098818 13.709931 17.48513 25.270348 34.608996 34.735438 51.407726 9.447028 16.780667 17.250309 32.134345 23.39178 46.079097 6.159534 13.944752 10.89208 25.631611 14.197636 35.096701 3.305557 9.447028 5.418945 16.058141 6.376292 19.851402L323.384583 464.073946l0 34.030975 145.354172 0 0 78.683083L266.66629 576.788005l0 34.030975L468.738755 610.81898l0 63.817111c0 4.24484 2.34821 7.676839 7.080755 10.277933s10.169554 4.371282 16.311025 5.310566c7.098818 1.426989 15.118857 2.131452 24.096243 2.131452l54.586841 0 0-81.537061 207.72623 0 0-34.030975-207.72623 0 0-78.683083 165.079132 0c0.036126 0.234821 0.072253 0.469642 0.108379 0.704463l0-0.704463L735.89275 498.104922c-3.341683-21.061633-8.959323-43.279309-16.907109-66.653025-6.611113-20.321044-16.419404-43.478003-29.424872-69.470877-13.005468-25.992874-30.129335-52.708273-51.407726-80.128135 0 0 162.712859-77.834115 334.475357-105.235915 28.521715 63.257153 44.417287 133.468619 44.417287 207.364967 0 278.913106-226.132581 505.027624-505.045687 505.027624-278.93117 0-505.045687-226.114518-505.045687-505.027624s226.114518-505.045687 505.045687-505.045687c173.008855 0 325.696666 87.010196 416.716881 219.64791C836.233551 118.742635 737.988075 159.547292 587.124643 226.561581L587.124643 226.561581zM190.096596 249.248898c-1.896631-86.666996 96.15015-93.097478 111.269007-93.567119 49.980737-1.535368 90.333815 17.340624 121.745634 35.999859 31.429882 18.677298 82.693103 66.887846 84.607797 68.549656 1.878568 1.66181 3.775198 3.413935 5.653766 5.310566-13.709931 7.56846-27.185041 14.540836-40.407268 20.917128s-80.471335 42.502593-140.133921 48.662127C219.846604 346.844099 190.674616 275.603034 190.096596 249.248898L190.096596 249.248898zM190.096596 249.248898"  horiz-adv-x="1024" />

    
    <glyph glyph-name="dianhua2" unicode="&#58916;" d="M411.52 568.0896l-97.7152-99.7632c50.8928-113.3312 158.7968-239.5648 284.0064-281.984l84.5056 84.48c0 0 200.2944-35.072 245.3248-57.0112 39.0144-18.9952 51.9168-61.0816 45.7984-112.9984-6.5536-55.808-79.4112-178.816-210.7136-180.1728-131.328-1.3568-324.6592 97.8688-463.1808 244.3264-138.5216 146.432-262.0416 332.032-242.2784 489.6512 19.7632 157.6192 156.6208 185.8048 190.8736 188.3136 34.6112 2.56 62.1056-7.6288 82.9696-33.5872C357.9648 775.9104 411.52 568.0896 411.52 568.0896L411.52 568.0896zM300.544 776.7552c-16.2816 21.376-44.288 24.9344-72.2688 18.3296-24.8576-5.8624-115.456-43.5712-128.256-144.5632-14.2592-112.3072 69.2224-302.336 219.0336-447.744 149.8368-145.3824 294.144-230.272 418.2016-240.4096 124.0832-10.1376 184.6016 99.4304 193.408 132.3264 8.832 32.9216 1.536 66.176-16.2816 79.4112-22.7072 16.8704-217.856 51.9168-217.856 51.9168l-88.5504-87.552c-145.5616 47.5136-282.6496 180.5312-341.0176 343.0656l96.7168 97.7152C363.6736 579.2768 316.8512 755.3792 300.544 776.7552L300.544 776.7552zM300.544 776.7552"  horiz-adv-x="1024" />

    
    <glyph glyph-name="lianxixinxi" unicode="&#58896;" d="M247.378756 581.813473l602.49296 0 0-67.353764-602.49296 0 0 67.353764ZM253.341006 413.73482l602.099844 0 0-67.179046-602.099844 0 0 67.179046ZM253.341006 253.605832l602.099844 0 0-67.419283-602.099844 0 0 67.419283ZM547.041855-127.999978c-116.886299 0-230.431117 40.206965-321.262603 113.457459L0-39.374306l93.692493 185.463088c-38.416106 73.141296-58.661547 155.018488-58.661547 237.900308C35.030946 666.311435 264.719511 896 547.041855 896s511.989069-229.688565 511.989069-512.010909S829.364198-127.999978 547.041855-127.999978zM245.587898 50.801989l10.352038-8.779576c81.156481-69.144623 184.523979-107.233133 291.10192-107.233133 247.706353 0 449.177972 201.515298 449.177972 449.199811S794.748208 833.188902 547.041855 833.188902c-247.684513 0-449.199811-201.515298-449.199811-449.199811 0-77.705802 20.26728-154.406975 58.661547-221.804419l8.320942-14.632627L108.28144 35.732567 245.587898 50.801989z"  horiz-adv-x="1060" />

    
    <glyph glyph-name="xiazai" unicode="&#58902;" d="M820.156894 418.238802l-205.438952 0L614.717941 829.115684l-205.438952 0 0-410.877905L203.842083 418.237779l308.157405-273.915533L820.156894 418.238802zM203.842083-61.115684l616.313787 0 0 68.477604L203.842083 7.361921 203.842083-61.115684z"  horiz-adv-x="1024" />

    
    <glyph glyph-name="yongjin" unicode="&#58906;" d="M512-128C229.2352-128 0 101.2352 0 384S229.2352 896 512 896s512-229.2352 512-512S794.7648-128 512-128zM512 704c-169.664 0-307.2-137.536-307.2-307.2s137.536-307.2 307.2-307.2 307.2 137.536 307.2 307.2S681.664 704 512 704zM512 115.2c-155.52 0-281.6 126.08-281.6 281.6s126.08 281.6 281.6 281.6 281.6-126.08 281.6-281.6S667.52 115.2 512 115.2zM627.2 396.8l0 25.6-89.6 0 89.6 140.8-38.4 0-76.8-128-64 128-38.4 0 76.8-140.8-89.6 0 0-25.6 102.4 0 0-64-102.4 0 0-25.6 102.4 0 0-76.8L524.8 230.4l0 76.8 102.4 0 0 25.6-102.4 0 0 64L627.2 396.8z"  horiz-adv-x="1024" />

    
    <glyph glyph-name="sousuo" unicode="&#58917;" d="M950.004217 2.845047 752.006747 200.85275c58.567907 68.75185 94.124727 157.647483 94.124727 254.832919 0 217.122039-176.645163 393.768225-393.779482 393.768225s-393.778458-176.646186-393.778458-393.768225c0-217.123063 176.644139-393.767202 393.778458-393.767202 97.175203 0 186.083116 35.555797 254.837013 94.122681l197.993376-197.993376c6.188956-6.187933 14.301727-9.281387 22.409382-9.281387s16.220427 3.093455 22.410406 9.281387C962.378036-29.586596 962.378036-9.518538 950.004217 2.845047zM452.353017 125.278517c-182.193529 0-330.394872 148.225903-330.394872 330.408175 0 182.183296 148.201343 330.407152 330.394872 330.407152 182.194552 0 330.397942-148.22488 330.397942-330.407152C782.750959 273.503397 634.547569 125.278517 452.353017 125.278517z"  horiz-adv-x="1024" />

    
    <glyph glyph-name="shouji" unicode="&#59012;" d="M394.395 16.109c-26.407 0-47.89-21.482-47.89-47.891 0-26.407 21.484-47.891 47.89-47.891 26.408 0 47.893 21.483 47.893 47.891C442.287-5.373 420.803 16.109 394.395 16.109zM631.334 769.931 157.458 769.931c-39.865 0-72.298-32.433-72.298-72.298l0-795.266c0-39.866 32.433-72.298 72.298-72.298l473.875 0c39.865 0 72.297 32.432 72.297 72.298L703.63 697.633C703.631 737.498 671.199 769.931 631.334 769.931zM157.458 721.732l473.875 0c13.289 0 24.1-10.812 24.1-24.1l0-595.808L133.359 101.824 133.359 697.633C133.359 710.921 144.17 721.732 157.458 721.732zM631.334-121.731 157.458-121.731c-13.288 0-24.1 10.81-24.1 24.099L133.358 49.5l522.075 0 0-147.133C655.434-110.922 644.623-121.731 631.334-121.731z"  horiz-adv-x="1024" />

    
    <glyph glyph-name="fenxiang" unicode="&#58887;" d="M789.804097 158.227953 742.865042 111.300154 898.765741-44.600545 945.704796 2.327254ZM456.92259 813.106058c-209.311143 0-379.582131-170.282245-379.582131-379.582131s170.270988-379.570875 379.582131-379.570875c209.287607 0 379.558595 170.270988 379.558595 379.570875S666.210197 813.106058 456.92259 813.106058zM770.128989 433.522903c0-172.721807-140.508127-313.229934-313.206398-313.229934-172.720783 0-313.229934 140.508127-313.229934 313.229934s140.508127 313.229934 313.229934 313.229934C629.620861 746.752838 770.128989 606.24471 770.128989 433.522903z"  horiz-adv-x="1024" />

    
    <glyph glyph-name="mine" unicode="&#58888;" d="M909.941268-12.539338c-7.472182 111.620194-62.636572 215.4694-151.337777 284.933471l-5.332449 3.682879-0.048095-0.071631c-5.0449 3.084245-10.79588 4.734838-16.714683 4.734838-20.337187 0-32.472576-9.804297-32.472576-26.231431 0-9.564843 4.423753-18.555611 11.847839-24.653493l-0.083911-0.143263 4.710278-3.371794c74.389244-53.1802 116.27112-133.834124 124.472919-239.763712l0.088004-1.155313c-0.073678-0.890276-0.12075-1.787716-0.12075-2.696412 0-17.900695 14.511505-32.413224 32.413224-32.413224 17.300015 0 31.431873 13.554714 32.361035 30.622438l0.644683 0L909.941268-12.539338zM805.554826 530.33995c0 161.142074-132.674719 292.25011-295.765167 292.25011S214.023468 691.482023 214.023468 530.33995c0-86.823438 38.390355-167.813007 105.678878-223.647663-120.791064-64.466244-200.967104-187.445136-210.041784-323.216379l-0.373507-5.659907c-0.007163-0.11768-0.017396-0.233314-0.023536-0.352017l-0.033769-0.515746 0.020466 0c-0.008186-0.275269-0.020466-0.550539-0.020466-0.827855 0-15.176654 12.30321-27.480888 27.480888-27.480888 15.176654 0 27.480888 12.30321 27.480888 27.480888 0 0.277316-0.01228 0.552585-0.020466 0.827855l0.571005 0 0.430812 5.643534c9.958816 129.028679 91.737354 242.011916 208.630644 288.568255 34.898835-16.21224 88.175225-33.093722 135.962601-33.093722 44.273343 0 87.266529 9.756201 128.203894 29.220508l29.984918 17.407462 24.485671 16.068977C764.318656 356.715587 805.554826 440.407708 805.554826 530.33995zM509.788635 296.912549c-130.319068 0-236.332567 104.734366-236.332567 233.450936 0 128.694057 106.013499 233.403864 236.332567 233.403864 130.331347 0 236.357126-104.709807 236.357126-233.403864C746.145761 401.645892 640.119983 296.912549 509.788635 296.912549z"  horiz-adv-x="1024" />

    
    <glyph glyph-name="tabulation" unicode="&#58889;" d="M148.72323 453.054749c-38.0762 0-68.942185-29.879518-68.942185-66.737984 0-36.859489 30.867008-66.74003 68.942185-66.74003 38.077224 0 68.944232 29.879518 68.944232 66.74003C217.666438 423.174208 186.800453 453.054749 148.72323 453.054749zM355.554902 664.876062l551.549761 0c19.062148 0 34.472116 14.94948 34.472116 33.368992 0 18.421558-15.409968 33.368992-34.472116 33.368992L355.554902 731.614046c-19.028379 0-34.472116-14.948457-34.472116-33.368992C321.082786 679.825542 336.526523 664.876062 355.554902 664.876062zM148.72323 141.124414c-38.0762 0-68.942185-29.879518-68.942185-66.737984 0-36.858466 30.867008-66.737984 68.942185-66.737984 38.077224 0 68.944232 29.879518 68.944232 66.737984C217.666438 111.244896 186.800453 141.124414 148.72323 141.124414zM907.105686 419.685757 355.554902 419.685757c-19.028379 0-34.472116-14.94948-34.472116-33.368992 0-18.421558 15.443737-33.371038 34.472116-33.371038l551.549761 0c19.062148 0 34.472116 14.94948 34.472116 33.371038C941.577802 404.736277 926.167834 419.685757 907.105686 419.685757zM148.72323 764.985084c-38.0762 0-68.942185-29.879518-68.942185-66.74003 0-36.858466 30.867008-66.737984 68.942185-66.737984 38.077224 0 68.944232 29.879518 68.944232 66.737984C217.666438 735.105566 186.800453 764.985084 148.72323 764.985084zM907.105686 107.755422 355.554902 107.755422c-19.028379 0-34.472116-14.915711-34.472116-33.368992 0-18.453281 15.443737-33.368992 34.472116-33.368992l551.549761 0c19.062148 0 34.472116 14.915711 34.472116 33.368992C941.577802 92.838687 926.167834 107.755422 907.105686 107.755422z"  horiz-adv-x="1024" />

    
    <glyph glyph-name="bofang" unicode="&#59093;" d="M512 832C264.576 832 64 631.424 64 384s200.576-448 448-448 448 200.576 448 448S759.424 832 512 832zM414.656 169.728 414.656 598.272l311.616-190.464L414.656 169.728z"  horiz-adv-x="1024" />

    
    <glyph glyph-name="gouwuche" unicode="&#58918;" d="M422.789189 27.157779m-66.907852 0a65.384 65.384 0 1 0 133.815705 0 65.384 65.384 0 1 0-133.815705 0ZM868.842221 27.157779m-66.907852 0a65.384 65.384 0 1 0 133.815705 0 65.384 65.384 0 1 0-133.815705 0ZM400.48623 317.092148l490.657926 0c49.27117 0 89.210811 39.940664 89.210811 89.210811L980.354967 562.421622c0 49.27117-39.938618 89.210811-89.210811 89.210811L400.48623 651.632433c-24.636097 0-44.604894-19.971867-44.604894-44.604894 0-24.636097 19.96982-44.604894 44.604894-44.604894l446.053032 0c24.636097 0 44.604894-19.96982 44.604894-44.604894l0-66.907852c0-24.636097-19.96982-44.604894-44.604894-44.604894L316.064492 406.305005 212.412784 774.869199c-5.641487 21.054525-25.440415 34.468023-46.407959 32.880875l-77.755921 0c-24.636097 0-44.604894-19.96982-44.604894-44.604894s19.96982-44.604894 58.20975-44.604894l33.737382 0 153.775292-546.797527c5.238304-19.546172 22.707165-32.352849 41.957601-32.844036 0.762363-0.037862 1.482771-0.227174 2.254344-0.227174l579.868737 0c24.636097 0 44.604894 19.96982 44.604894 44.604894 0 24.636097-19.96982 44.604894-44.604894 44.604894L400.48623 227.881336c-24.636097 0-44.604894 19.96982-44.604894 44.604894C355.881336 297.122327 375.850134 317.092148 400.48623 317.092148z"  horiz-adv-x="1024" />

    
    <glyph glyph-name="shijian1" unicode="&#58989;" d="M512 700.704C290.688 700.704 111.296 521.312 111.296 300c0-221.312 179.392-400.704 400.704-400.704 221.312 0 400.64 179.392 400.64 400.704C912.704 521.312 733.312 700.704 512 700.704zM803.84 226.784c0 0-272.32 0-292.48 0-20.16 0-36.544 16.384-36.544 36.544L474.816 594.976c0 20.16 16.384 36.544 36.544 36.544 20.16 0 36.544-16.384 36.544-36.544l0-295.04 255.936 0c20.16 0 36.544-16.384 36.544-36.544C840.448 243.104 824.064 226.784 803.84 226.784zM512.064 812C229.248 812 0 582.752 0 300c0-282.752 229.248-512 512.064-512C794.816-212 1024 17.248 1024 300 1024 582.752 794.816 812 512.064 812zM512-140.32c-243.2 0-440.384 197.12-440.384 440.32C71.68 543.2 268.8 740.32 512 740.32 755.2 740.32 952.32 543.2 952.32 300 952.32 56.864 755.2-140.32 512-140.32z"  horiz-adv-x="1024" />

    
    <glyph glyph-name="jifen" unicode="&#59004;" d="M500.406537 812c-7.536078 0-15.022516-0.158063-22.446251-0.428468-15.507155-0.556486-27.539537-13.164949-26.953006-28.096024 0.617883-14.966345 13.633913-26.621205 29.086203-26.059493l0 0.040495c6.765357 0.235135 13.516345 0.403648 20.307829 0.403648C784.083889 757.314123 1013.560005 535.533455 1014.07077 261.269341c0-171.436952-89.773249-322.432831-226.501657-411.695314-12.838373-8.389095-16.165533-25.243052-7.515177-37.658182 5.39243-7.741168 14.23612-11.893914 23.252242-11.893914 5.388511 0 10.822743 1.494414 15.629948 4.59689 151.485744 98.912164 251.173853 266.614387 251.198673 456.65052C1070.124349 565.429568 815.094281 812 500.406537 812zM525.909543 284.076133c0.982342 0 2.101846 0.088829 3.327161 0.26518l0.740675 0.052252 125.951386 0c4.464953 0 5.826124 1.358558 5.826124 5.816979l0 132.590032c0 1.549279 0 4.400944-6.374772 5.82743l-127.618232 0c-2.591711 0-5.816979 0-5.816979-8.036393l0-130.818681-0.073153-0.431081c-0.421937-2.498963-0.139775-3.899323 0.26518-4.378737C522.500085 284.534646 523.680986 284.076133 525.909543 284.076133zM483.2874 722.282922C216.372562 722.282922 0 513.131618 0 255.131011S216.367337-212 483.27695-212c266.914838 0 483.29785 209.140854 483.29785 467.131011C966.5748 513.126393 750.202238 722.282922 483.2874 722.282922zM393.21762 178.794423c-2.319999 3.081575-5.089367 6.626889-8.281978 10.60459l0-166.807404-0.022207-0.239054c-1.203108-13.07612-8.379951-29.109717-35.732687-31.250752l-0.393198-0.030045-0.391892 0.028739c-29.577374 2.143648-35.786246 18.437199-35.786246 31.730166L312.609412 142.048042c-6.561574-16.818686-13.729273-31.104446-21.360711-42.555522l-0.124099-0.178964c-9.11932-12.523553-20.12364-18.872199-32.708589-18.872199-5.621034 0-11.586932 1.299774-17.731794 3.864052l-0.487252 0.233829c-13.183237 7.179456-25.782556 21.520081-10.933779 49.054393l0.161982 0.278243c32.40422 52.125518 58.352677 113.346842 77.17393 182.05983l-50.641554 0c-14.477786 0-31.734085 6.27288-31.734085 36.158543l0.014369 0.393198c1.638107 21.702963 13.99576 34.068453 35.739219 35.758813l0.404955 0.015676 52.226103 0L312.608106 433.995617c-5.507385-1.06072-12.419049-2.105765-20.654-3.122071l-0.64009-0.039189-21.777423 0c-3.459098-0.424549-6.762745-0.638784-9.826032-0.638784-25.553953 0-33.364355 14.744273-35.416561 27.113682l-0.070541 0.424549 0 0.431081c0 23.039314 12.911526 37.800569 37.338137 42.684846l0.508153 0.101892 17.908145 0c52.401148 5.809142 92.264374 11.713643 118.48193 17.551524l0.39973 0.073153c2.969233 0.423243 5.850943 0.636171 8.56414 0.636171 18.391478 0 31.167148-9.87959 36.946245-28.571519l0.173739-0.563018 0.044414-0.587838c1.638107-21.736927-9.684951-35.856786-32.751697-40.839036-5.886214-1.478738-11.765896-2.952251-17.610308-4.400944l-0.619189-0.154144-8.669951 0 0-55.839345 35.029895-0.022207c9.887428-0.909189 21.461297-5.240899 27.444177-19.113865L447.411019 449.084754c-1.60545 17.96301 1.634188 31.514626 9.631392 40.276018 7.707204 8.445267 19.622018 12.348508 35.49102 11.590851l187.599872 0c20.203324 0.80991 35.194489-3.768692 44.611647-13.614318 8.377339-8.75878 12.259679-21.586702 11.542517-38.129758l0-189.806223c0.751126-16.513011-2.760224-28.964717-10.437383-37.008948-6.782339-7.106303-16.681524-10.709094-29.420618-10.709094-2.415359 0-4.974412 0.130631-7.609231 0.386666L488.141632 212.069949c-1.235765-0.070541-2.458467-0.104504-3.635449-0.104504 0 0-0.001306 0-0.002613 0-11.564725 0-20.62918 3.368962-26.945168 10.011527-7.56351 7.954096-10.976887 20.548189-10.147383 37.434803l0 74.686724c-6.054727-14.591435-17.846749-18.166794-27.922285-18.166794l-34.551787 0 0-8.514501c4.053467-5.41725 8.103014-10.822743 12.161706-16.215173 29.875212-37.365569 46.516241-58.350064 50.871464-64.144837l0.424549-0.666216c11.471977-21.33981 9.682338-39.767865-5.320583-54.777318l-0.431081-0.38536c-7.129817-5.705943-14.360219-8.599411-21.490036-8.599411-9.771167 0-19.125622 5.383286-27.806024 16.002245L393.21762 178.794423zM567.727003 146.314437c-26.578096-48.721285-61.035829-95.919417-102.433964-140.308992l-0.482027-0.454594c-10.236212-8.507969-20.757198-12.821391-31.267734-12.821391 0 0 0 0-0.001306 0-9.490311 0-18.993685 3.517881-28.243636 10.455671l-0.408874 0.306982-0.342252 0.380135c-10.590221 11.780265-18.386253 30.640707 4.617791 53.600337 30.401653 30.401653 60.591685 72.387626 89.724915 124.786161l0.116261 0.198558c9.040942 14.694633 20.421478 22.145801 33.826787 22.145801 6.048196 0 12.517022-1.568873 19.222289-4.662205l0.556486-0.299144C574.11745 186.363158 579.343979 167.92204 567.727003 146.314437zM738.121522 9.48283l-0.412793-0.241667-0.449369-0.163288c-4.871214-1.758288-9.562158-2.649188-13.939588-2.649188-0.001306 0-0.001306 0-0.002613 0-12.41513 0.001306-22.481522 6.868556-29.919626 20.411027-32.077644 52.472995-60.206325 94.667976-83.606179 125.411882-6.634727 9.095807-9.223825 17.841524-7.756843 26.080394 1.541441 8.659501 7.547835 16.535218 17.85328 23.412918l0.207703 0.131937c16.501254 9.922698 34.508679 7.55306 52.398536-7.065808l0.455901-0.372297 0.36054-0.465045c30.896743-39.705163 59.332406-85.346179 84.519287-135.658544l0.287387-0.692342C764.745339 37.648088 757.832369 21.001834 738.121522 9.48283z"  horiz-adv-x="1071" />

    
    <glyph glyph-name="gouwuche3" unicode="&#58897;" d="M1003.088961 561.472008c-6.208 7.68-15.552 12.16-25.343999 12.16L223.120981 573.632008 176.144982 742.720004C172.304982 756.544003 160.016982 766.208003 145.744983 766.656003L33.616985 770.112003C15.696986 771.008003 0.592986 756.480003 0.016986 738.432004S13.584986 705.216005 31.632985 704.640005l88.191998-2.688 174.719996-628.287984c0-0.192 0.128-0.32 0.192-0.448C295.760979 69.888021 297.168979 66.752021 299.024979 64.000021c0.128-0.256 0.32-0.448 0.512-0.704 1.856-2.688 4.096-4.992 6.656-6.912 0.192-0.192 0.448-0.32 0.64-0.448 2.624-1.856 5.44-3.456 8.512-4.48 0.192-0.064 0.384-0.128 0.576-0.128 3.072-1.024 6.336-1.536 9.728-1.6 0.064 0 0.128-0.064 0.192-0.064s0.064 0 0.128 0l553.919986 0c15.36 0 28.671999 10.816 31.871999 25.919999l97.727998 458.495989C1011.664961 543.744009 1009.296961 553.792009 1003.088961 561.472008L1003.088961 561.472008 1003.088961 561.472008zM937.360963 508.16001l-24.447999-114.687997c-0.192 0-0.256 0.064-0.384 0.064L282.064979 393.536013 253.58498 508.16001 937.360963 508.16001 937.360963 508.16001 937.360963 508.16001zM885.008964 262.592016 314.704978 262.592016 298.384979 328.064014l600.639985 0L885.008964 262.592016 885.008964 262.592016 885.008964 262.592016zM351.376977 115.13602l-20.351999 81.855998 540.031986 0-17.344-81.855998L351.376977 115.13602 351.376977 115.13602 351.376977 115.13602zM448.784975 16.960022c-38.719999 0-70.143998-32.447999-70.143998-72.511998C378.704977-95.551975 410.064976-127.999974 448.784975-127.999974s70.079998 32.447999 70.079998 72.447998C518.864973-15.487977 487.504974 16.960022 448.784975 16.960022M777.232967 16.960022c-38.719999 0-70.143998-32.447999-70.143998-72.511998 0-39.999999 31.359999-72.447998 70.143998-72.447998s70.143998 32.447999 70.143998 72.447998C847.312965-15.487977 815.952966 16.960022 777.232967 16.960022"  horiz-adv-x="1025" />

    
    <glyph glyph-name="chongzhi" unicode="&#58925;" d="M512 895.981568c-282.218496 0-512-229.639168-512-512s229.742592-511.963136 512-511.963136c282.328064 0 512 229.602304 512 511.963136S794.359808 895.981568 512 895.981568L512 895.981568zM512-63.886336c-247.02976 0-447.939584 200.941568-447.939584 447.905792C64.060416 631.12192 264.97024 831.992832 512 831.992832c247.027712 0 447.978496-200.870912 447.978496-447.973376C960.011264 137.05728 759.02976-63.886336 512-63.886336L512-63.886336zM753.299456 590.497792c13.748224 0 22.124544-7.661568 25.20576-22.914048-1.540096-13.749248-9.165824-21.410816-22.914048-22.915072L482.912256 544.668672c-30.575616-41.244672-71.822336-83.277824-123.736064-126.027776l-4.584448-4.584448c0-1.539072 2.291712-2.289664 6.874112-2.289664 103.867392 0 204.690432 3.794944 302.467072 11.456512-21.408768 29.000704-41.243648 52.703232-59.57632 71.033856-9.165824 10.67008-9.165824 21.374976 0 32.079872 12.208128 10.669056 23.665664 10.669056 34.37056 0 21.374976-21.409792 62.618624-72.573952 123.737088-153.525248 7.624704-13.749248 6.084608-25.993216-4.584448-36.66432-10.704896-7.660544-21.410816-5.368832-32.079872 6.87616-6.122496 7.624704-12.995584 16.038912-20.62336 25.203712-4.5824 4.584448-7.661568 8.379392-9.165824 11.456512-18.3296-1.539072-42.033152-3.079168-71.033856-4.583424-13.748224-1.540096-24.454144-2.290688-32.079872-2.290688l0-185.60512c1.50528-18.330624 13.750272-28.249088 36.665344-29.789184l64.15872 0c28.99968-4.583424 42.747904 19.83488 41.243648 73.324544 1.504256 15.253504 9.919488 23.665664 25.20576 25.20576 13.748224-1.540096 21.374976-9.955328 22.914048-25.20576 4.583424-88.578048-23.701504-128.319488-84.78208-119.153664l-80.19968 0c-47.368192 1.540096-72.573952 22.915072-75.616256 64.159744L542.486528 370.522112c-29.036544-3.079168-61.11744-4.583424-96.239616-4.583424-1.540096-128.320512-59.577344-210.81088-174.14656-247.474176-15.28832-6.085632-25.20576-3.044352-29.78816 9.1648-4.584448 15.289344-0.78848 26.744832 11.456512 34.371584 91.657216 27.497472 138.988544 95.45216 142.067712 203.935744-16.828416 0-43.538432 0-80.19968 0-19.869696 0-32.867328 5.33504-38.955008 16.039936-4.5824 12.209152 0.751616 24.418304 16.039936 36.662272 48.873472 38.165504 93.161472 80.19968 132.902912 126.027776L267.517952 544.666624c-13.749248 0-21.410816 7.625728-22.914048 22.915072 1.503232 13.748224 9.1648 21.373952 22.914048 22.914048l206.22848 0c-1.540096 3.043328-4.584448 9.1648-9.165824 18.330624l-6.874112 13.749248c-7.661568 12.209152-5.37088 22.914048 6.874112 32.078848 12.209152 6.086656 22.915072 3.044352 32.079872-9.1648 6.086656-9.165824 16.039936-27.497472 29.789184-54.99392L753.299456 590.497792 753.299456 590.497792z"  horiz-adv-x="1024" />

    
    <glyph glyph-name="anquan" unicode="&#58979;" d="M929.675728 593.02987c-132.937708 4.807493-417.805688 153.844877-417.805688 153.844877l-4.748141 0c0 0-277.04685-149.037385-409.984558-153.844877-11.078313-56.089459 7.164167-402.240177 100.537787-540.059056 61.813834-92.947925 251.857145-175.691441 308.655755-196.71322 0 0 3.520173-3.240811 11.078313-0.401136 73.339332 27.562752 237.346663 92.947925 311.728744 197.113333C932.006819 210.019663 940.542216 535.592716 929.675728 593.02987zM679.611415 329.380144l-134.493134 0 0-62.958914 134.493134 0 0-52.206012-134.493134 0 0-120.002095-63.832817 0L481.285464 214.215218 347.910804 214.215218 347.910804 266.42123l133.373637 0 0 62.958914L347.910804 329.380144l0 52.717665 108.434641 0-70.610174 125.798101 69.910233 0c0 0 55.241139-102.014418 57.684794-111.272269 2.864234 10.024308 58.542324 111.272269 58.542324 111.272269l69.968561 0L570.302871 382.09781l109.308545 0L679.611415 329.380144z"  horiz-adv-x="1024" />

    
    <glyph glyph-name="fenxiang1" unicode="&#58974;" d="M840.519664 787.655546c88.442308-32.30373 133.958968-130.187061 101.651145-218.629369-32.29759-88.442308-130.187061-133.952828-218.628346-101.650121-88.448448 32.302707-133.958968 130.187061-101.657284 218.623229C654.187885 774.441593 752.071216 819.952112 840.519664 787.655546L840.519664 787.655546zM278.666232 434.390803c81.636299-29.817096 123.647111-120.179127 93.834108-201.810309-29.817096-81.635275-120.184243-123.646088-201.819518-93.834108-81.635275 29.818119-123.651204 120.179127-93.834108 201.808262C106.662787 422.19197 197.024817 464.202783 278.666232 434.390803L278.666232 434.390803zM861.933369 81.75744c74.850755-27.337625 113.350604-110.154819 86.018096-184.995341-27.337625-74.834382-110.149703-113.350604-185.000458-86.011956-74.850755 27.337625-113.350604 110.154819-86.018096 184.994318C704.269513 70.579867 787.081591 109.095066 861.933369 81.75744L861.933369 81.75744zM284.351722 237.545576l28.469402 44.058448 497.03824-321.139068-28.469402-44.058448L284.351722 237.545576 284.351722 237.545576zM793.029046 681.605208l29.627784-43.270503-558.530756-382.399293-29.627784 43.269479L793.029046 681.605208 793.029046 681.605208zM793.029046 681.605208"  horiz-adv-x="1024" />

    
    <glyph glyph-name="bianji" unicode="&#58999;" d="M779.251763-73.750309c19.232017 0 34.806737-16.3422 34.806737-36.524868 0-20.149922-15.573697-36.492122-34.806737-36.492122L163.834392-146.7673c-19.204387 0-34.778084 16.341177-34.778084 36.492122 0 20.181645 15.57472 36.524868 34.778084 36.524868L779.251763-73.750309zM162.211429-24.475046l83.597977 234.30949 136.251174-143.000901L162.211429-24.475046zM409.996838 93.763892 272.593422 237.937502l373.534392 388.885008L783.527137 482.64583 409.996838 93.763892zM809.163003 512.606189 671.76061 656.780823l68.729338 72.088852c22.773679 23.864524 59.646472 23.864524 82.419128 0l54.953589-57.663304c22.773679-23.896246 22.773679-62.647829 0-86.543052L809.163003 512.606189z"  horiz-adv-x="1024" />

    
    <glyph glyph-name="kefu" unicode="&#58971;" d="M888.518 597.041c-27.755 34.214 117.369 68.483 117.369 106.217 0 72.586-381.506 94.122-493.885 94.122-281.333 0-509.382-228.037-509.382-509.351 0-281.372 228.045-509.407 509.382-509.407 281.333 0 509.376 228.035 509.376 509.407 0 121.475-61.849 221.463-132.861 309.013v0zM590.404 662.176c24.825 0 46.889-14.608 61.033-37.315 10.213-16.315-75.881-59.153-75.881-59.153s88.204-34.735 81.338-49.173c-13.438-28.341-38.208-47.296-66.49-47.296-42.72 0-77.285 43.189-77.285 96.47s34.564 96.468 77.285 96.468v0zM356.782 662.176c24.822 0 46.95-14.608 61.087-37.315 10.151-16.315-75.937-59.153-75.937-59.153s88.206-34.735 81.339-49.173c-13.5-28.341-38.202-47.296-66.49-47.296-42.666 0-77.285 43.189-77.285 96.47-0.004 53.281 34.623 96.468 77.287 96.468v0zM584.181 10.764c-125.934 0-233.916 76.46-279.102 185.019 38.38-33.859 92.484-116.831 279.102-116.831 89.67 0 228.4 91.014 228.4 221.637 0 21.708-43.425 17.545-43.425 36.438 0 18.839 116.842 35.447 116.842-27.403 0-165.007-135.15-298.861-301.817-298.861v0zM584.181 10.764z"  horiz-adv-x="1024" />

    
    <glyph glyph-name="chaxunfuwu" unicode="&#58931;" d="M604.945 499.627l-174.94 0c-8.482 0-15.492 7.011-15.492 15.492s7.011 15.492 15.492 15.492l175.053 0c8.482 0 15.492-7.011 15.492-15.492-0.112-8.595-7.125-15.492-15.605-15.492l0 0zM604.945 430.308l-174.94 0c-8.482 0-15.492 7.011-15.492 15.605 0 8.482 7.011 15.492 15.492 15.492l175.053 0c8.482 0 15.492-6.898 15.492-15.492-0.112-8.707-7.125-15.605-15.605-15.605l0 0zM598.046 699.218l-180.593 0c-34.151 0-61.97-27.706-61.97-61.743l0-334.839 152.888 0c62.987 0 114.214-51.339 114.214-114.327l0-147.234 211.127 0c34.151 0 61.855 27.705 61.855 61.855l0 169.511c0 14.588 11.761 26.347 26.235 26.347 14.588 0 26.347-11.761 26.347-26.347l0-169.511c0-63.214-51.339-114.44-114.44-114.44l-244.485 0c-7.011 0-13.57 2.827-18.546 7.69l-260.092 258.96c-4.975 4.863-7.69 11.648-7.69 18.658l0 363.676c0 63.101 51.339 114.44 114.553 114.44l180.593 0c14.588 0 26.461-11.761 26.461-26.347 0-14.475-11.873-26.348-26.461-26.348l0 0zM570.568 70.478l0 117.832c0 34.377-27.931 62.196-62.082 62.196l-118.624 0 180.707-180.028zM570.568 70.478zM1105.789 389.032l-99.061 99.061c23.748 30.533 37.996 68.981 37.996 110.708 0 99.739-80.854 180.707-180.707 180.707-99.739 0-180.593-80.967-180.593-180.707 0-99.739 80.854-180.593 180.593-180.593 41.728 0 80.176 14.136 110.821 37.996l99.061-99.061c4.409-4.41 10.178-6.672 15.945-6.672s11.535 2.261 15.945 6.672c8.933 8.82 8.933 23.069 0 31.889l0 0zM728.657 598.801c0 74.748 60.727 135.473 135.36 135.473 74.748 0 135.473-60.727 135.473-135.473 0-74.748-60.727-135.473-135.473-135.473-74.635 0-135.36 60.839-135.36 135.473l0 0zM728.657 598.801z"  horiz-adv-x="1406" />

    
    <glyph glyph-name="31shouye" unicode="&#58890;" d="M939.175079 411.656897 557.721321 788.244834c-1.927909 2.290159-5.950526 6.025227-11.568477 9.730619-10.06217 6.627954-20.757766 10.001795-31.783891 10.001795-11.855002 0-22.820752-3.40454-32.597419-10.092869-6.477528-4.458545-9.942443-8.465812-11.4334-10.454096L89.606831 411.626197c-6.522554-6.417153-10.107195-14.973016-10.107195-24.071232 0-9.06854 3.584642-17.624403 10.107195-24.041556 11.990079-11.900028 29.494755-8.495488 46.169529 7.92346l25.592888 25.306362 354.068038 342.966189 2.15406-2.109034 375.428531-369.146455c11.508102-7.531534 21.842471-11.538801 30.217209-11.538801 6.236028 0 11.44875 2.169409 15.936971 6.598278 6.507204 6.417153 10.092869 14.94334 10.122545 24.041556C949.297624 396.653181 945.712983 405.210068 939.175079 411.656897zM796.885376 431.119157c-15.72617 0-28.590152-12.68388-28.681226-28.259624l0-351.311251c0-19.191084-15.816221-34.796504-35.278481-34.796504l-87.458911 0L645.466758 212.576769c0 48.143487-39.617299 87.308485-88.317465 87.308485l-85.531002 0c-48.700165 0-88.317465-39.164998-88.317465-87.308485L383.300826 16.751778 295.841915 16.751778c-19.462261 0-35.30918 15.60542-35.30918 34.796504L260.532735 402.769482c-0.029676 15.636119-12.863982 28.349675-28.620851 28.349675-15.741519 0-28.605501-12.713556-28.650527-28.318976l0-355.468944c0-48.143487 39.617299-87.308485 88.317465-87.308485l148.993382 0L440.572204 208.329025c0 19.160385 15.84692 34.736129 35.30918 34.736129l77.020164 0c19.47761 0 35.293831-15.575744 35.293831-34.736129l0-248.307296 149.008732 0c48.685839 0 88.332814 39.164998 88.332814 87.308485L825.536926 402.829857C825.415153 418.405601 812.580846 431.119157 796.885376 431.119157z"  horiz-adv-x="1024" />

    
    <glyph glyph-name="31huidaodingbu" unicode="&#58891;" d="M536.797267 614.246965c-4.232394 6.344498-10.273994 11.05887-17.347087 13.536294-3.714602 1.481747-7.735172 2.266623-12.144598 2.266623l-0.183172 0-1.147126 0.12075c-0.575098 0-1.026376-0.090051-1.601474-0.150426-4.229325 0-8.18645-0.7552-11.69332-2.145873-7.312546-2.508123-13.385868-7.312546-17.223267-13.355169l-254.17698-254.752078c-5.952572-5.921873-9.18622-13.990642-9.18622-22.691815 0-9.66922 4.110621-19.24839 11.17962-26.318412 7.010671-6.980995 16.075117-10.850116 25.501814-10.850116 8.702196 0 16.861016 3.325745 23.024389 9.457396 0.242524 0.302899 0.544399 0.544399 0.847298 0.847298 0.63445 0.544399 1.388627 1.24127 1.721201 1.783623l195.588607 195.256032 0.393973-469.799876c-0.151449-1.026376-0.151449-1.962701-0.091074-2.870374l0.060375-1.088798c0-17.675568 15.47239-31.513738 35.233456-31.513738 19.942191 0 36.07666 14.140045 36.07666 31.513738l0.364297 473.759047 195.34506-194.98281c0.632403-0.787946 1.328251-1.452071 2.084475-2.087545l0.846274-0.816598c6.104021-6.131651 14.262842-9.457396 22.961968-9.457396 9.428743 0 18.49319 3.868097 25.504884 10.850116 14.07967 14.048971 14.987343 36.016285 1.991354 49.010227L536.797267 614.246965zM887.66338 766.02067 124.346541 766.02067c-17.706267 0-32.073486-14.382569-32.073486-32.028461 0-17.675568 14.367219-32.05916 32.073486-32.05916l763.317862 0c17.677615 0 32.060183 14.383592 32.060183 32.05916C919.723563 751.638101 905.342018 766.02067 887.66338 766.02067"  horiz-adv-x="1024" />

    
    <glyph glyph-name="31quanbushangpin" unicode="&#58892;" d="M830.904679 627.50492 745.113757 627.50492C708.080306 741.559559 619.198999 812.16871 511.984139 812.16871S315.919694 741.559559 278.855544 627.50492l-85.760223 0c-48.204885 0-87.411839-39.987736-87.411839-89.202625l0-493.345128c0-49.152467 39.20593-89.125877 87.411839-89.125877l637.809357 0c46.275953 0 83.83129 36.910655 86.830601 83.310428 0.121773 1.039679 0.579191 1.89721 0.579191 2.937912l0 2.877537 0 23.627117L918.314471 538.302295C918.314471 587.518207 879.10854 627.50492 830.904679 627.50492M511.984139 747.66665c75.719542 0 136.780223-43.629683 168.947853-120.160707L343.068008 627.505943C375.234615 704.036967 436.264597 747.66665 511.984139 747.66665M826.71117 14.04411 197.28883 14.04411c-18.945491 0-34.30941 15.793708-34.30941 35.19764L162.97942 534.048411c0 19.404955 15.363919 35.166941 34.30941 35.166941l68.007907 0c-3.091408-19.939121-4.622274-39.83424-4.622274-59.360969 0-15.364943 1.010003-30.973432 3.03001-47.517223-16.068977-10.497075-25.863041-28.387537-25.863041-47.914266 0-31.494295 25.159006-57.141418 56.101739-57.141418 30.882358 0 56.07104 25.647123 56.07104 57.141418 0 19.388583-9.824763 37.386492-25.892717 47.914266-2.539846 16.771989-3.764744 32.351825-3.764744 47.517223 0 19.863397 1.836835 39.803541 5.448082 59.360969l372.35759 0c3.612271-19.465331 5.448082-39.405475 5.448082-59.360969 0-15.395642-1.254573-31.157627-3.795443-48.083112-15.578814-10.559497-25.066909-28.387537-25.066909-47.348378 0-31.494295 25.130354-57.141418 56.041364-57.141418 30.943756 0 56.101739 25.647123 56.101739 57.141418 0 19.894096-10.039657 37.983079-26.536376 48.38908 1.957585 16.160051 2.907213 31.616068 2.907213 47.042409 0 19.618826-1.528819 39.512922-4.559852 59.360969l68.007907 0c18.883069 0 34.248012-15.761985 34.248012-35.166941L860.958158 49.118953C860.897783 29.77642 845.565587 14.04411 826.71117 14.04411"  horiz-adv-x="1024" />

    
    <glyph glyph-name="31shouqi" unicode="&#58893;" d="M917.284001 169.723775c-5.406127-5.437849-13.06762-8.396227-21.479197-8.396227-9.611915 0-18.953677 3.843538-25.713638 10.543124L511.980046 531.993612 153.873018 171.91672c-6.729262-6.745634-16.072047-10.619872-25.654286-10.619872-8.470929 0-16.131399 2.989077-21.598924 8.457626-12.301164 12.435217-11.32493 33.69031 2.192945 47.312562l376.764969 378.821815c6.758937 6.788613 15.860223 10.723226 25.052582 10.8143l3.425006 0c8.981559-0.301875 17.814738-4.205788 24.423249-10.8143l376.733247-378.853537C928.728658 203.383386 929.690566 182.11499 917.284001 169.723775"  horiz-adv-x="1024" />

    
    <glyph glyph-name="31xiala" unicode="&#58894;" d="M917.284001 598.277248c-5.406127 5.437849-13.06762 8.396227-21.479197 8.396227-9.611915 0-18.953677-3.844561-25.713638-10.543124L511.980046 236.007411 153.873018 596.08328c-6.729262 6.745634-16.072047 10.619872-25.654286 10.619872-8.470929 0-16.131399-2.989077-21.598924-8.457626-12.301164-12.435217-11.32493-33.69031 2.192945-47.312562l376.764969-378.821815c6.758937-6.788613 15.860223-10.723226 25.052582-10.8143l3.425006 0c8.981559 0.301875 17.814738 4.205788 24.423249 10.8143l376.733247 378.852514C928.728658 564.617637 929.690566 585.886033 917.284001 598.277248"  horiz-adv-x="1024" />

    
    <glyph glyph-name="shuxian" unicode="&#58941;" d="M369.777778 812l284.444444 0 0-1024-284.444444 0 0 1024Z"  horiz-adv-x="1024" />

    
    </font>
</defs>
</svg>
